<?xml version="1.0" encoding="utf-8"?>
<!-- Generator: Adobe Illustrator 22.1.0, SVG Export Plug-In . SVG Version: 6.00 Build 0)  -->
<svg version="1.1" id="_x32_377f5c3-0a7f-4790-9f8f-19a09ca50ce0"
	 xmlns="http://www.w3.org/2000/svg" xmlns:xlink="http://www.w3.org/1999/xlink" x="0px" y="0px" viewBox="0 0 855 2700"
	 style="enable-background:new 0 0 855 2700;" xml:space="preserve">

<style type="text/css">
	.horizontal{fill:none;stroke:white;stroke-width:0.54;stroke-miterlimit:10;}
</style>

<g>
  <polyline class="horizontal" points="855,0 -130,0 -165,0 	"/>
  <polyline class="horizontal" points="855,30 -130,30 -165,30 	"/>
  <polyline class="horizontal" points="855,60 -130,60 -165,60 	"/>
  <polyline class="horizontal" points="855,90 -130,90 -165,90 	"/>
  <polyline class="horizontal" points="855,120 -130,120 -165,120 	"/>
  <polyline class="horizontal" points="855,150 -130,150 -165,150 	"/>
  <polyline class="horizontal" points="855,180 -130,180 -165,180 	"/>
  <polyline class="horizontal" points="855,210 -130,210-165,210 	"/>
  <polyline class="horizontal" points="855,240 -130,240 -165,240 	"/>
  <polyline class="horizontal" points="855,270 -130,270 -165,270 	"/>
  <polyline class="horizontal" points="855,300 -130,300 -165,300 	"/>
  <polyline class="horizontal" points="855,330 -130,330 -165,330 	"/>
  <polyline class="horizontal" points="855,360 -130,360 -165,360 	"/>
  <polyline class="horizontal" points="855,390 -130,390 -165,390 	"/>
  <polyline class="horizontal" points="855,420 -130,420 -165,420 	"/>
  <polyline class="horizontal" points="855,450 -130,450 -165,450 	"/>
  <polyline class="horizontal" points="855,480 -130,480 -165,480 	"/>
  <polyline class="horizontal" points="855,510 -130,510 -165,510 	"/>
  <polyline class="horizontal" points="855,540 -130,540 -165,540 	"/>
  <polyline class="horizontal" points="855,570 -130,570 -165,570 	"/>
  <polyline class="horizontal" points="855,600 -130,600 -165,600 	"/>
  <polyline class="horizontal" points="855,630 -130,630 -165,630 	"/>
  <polyline class="horizontal" points="855,660 -130,660 -165,660 	"/>
  <polyline class="horizontal" points="855,690 -130,690 -165,690 	"/>
  <polyline class="horizontal" points="855,720 -130,720 -165,720 	"/>
  <polyline class="horizontal" points="855,750 -130,750 -165,750 	"/>
  <polyline class="horizontal" points="855,780 -130,780 -165,780 	"/>
  <polyline class="horizontal" points="855,810 -130,810 -165,810 	"/>
  <polyline class="horizontal" points="855,840 -130,840 -165,840 	"/>
  <polyline class="horizontal" points="855,870 -130,870 -165,870 	"/>
  <polyline class="horizontal" points="855,900 -130,900 -165,900 	"/>
  <polyline class="horizontal" points="855,930 -130,930 -165,930 	"/>
  <polyline class="horizontal" points="855,960 -130,960 -165,960 	"/>
  <polyline class="horizontal" points="855,990 -130,990 -165,990 	"/>
  <!-- <polyline class="horizontal" points="855,1020 -130,1020 -165,1020 	"/>
  <polyline class="horizontal" points="855,1050 -130,1050 -165,1050 	"/>
  <polyline class="horizontal" points="855,1080 -130,1080 -165,1080 	"/>
  <polyline class="horizontal" points="855,1110 -130,1110 -165,1110 	"/>
  <polyline class="horizontal" points="855,1140 -130,1140 -165,1140 	"/>
  <polyline class="horizontal" points="855,1170 -130,1170 -165,1170 	"/>
  <polyline class="horizontal" points="855,1200 -130,1200 -165,1200 	"/>
  <polyline class="horizontal" points="855,1230 -130,1230 -165,1230 	"/>
  <polyline class="horizontal" points="855,1260 -130,1260 -165,1260 	"/>
  <polyline class="horizontal" points="855,1290 -130,1290 -165,1290 	"/>
  <polyline class="horizontal" points="855,1320 -130,1320 -165,1320 	"/>
  <polyline class="horizontal" points="855,1350 -130,1350 -165,1350 	"/>
  <polyline class="horizontal" points="855,1380 -130,1380 -165,1380 	"/>
  <polyline class="horizontal" points="855,1410 -130,1410 -165,1410 	"/>
  <polyline class="horizontal" points="855,1440 -130,1440 -165,1440 	"/>
  <polyline class="horizontal" points="855,1470 -130,1470 -165,1470 	"/>
  <polyline class="horizontal" points="855,1500 -130,1500 -165,1500 	"/>
  <polyline class="horizontal" points="855,1530 -130,1530 -165,1530 	"/>
  <polyline class="horizontal" points="855,1560 -130,1560 -165,1560 	"/>
  <polyline class="horizontal" points="855,1590 -130,1590 -165,1590 	"/>
  <polyline class="horizontal" points="855,1620 -130,1620 -165,1620 	"/>
  <polyline class="horizontal" points="855,1650 -130,1650 -165,1650 	"/>
  <polyline class="horizontal" points="855,1680 -130,1680 -165,1680 	"/>
  <polyline class="horizontal" points="855,1710 -130,1710 -165,1710 	"/>
  <polyline class="horizontal" points="855,1740 -130,1740 -165,1740 	"/>
  <polyline class="horizontal" points="855,1770 -130,1770 -165,1770 	"/>
  <polyline class="horizontal" points="855,1800 -130,1800 -165,1800 	"/>
  <polyline class="horizontal" points="855,1830 -130,1830 -165,1830 	"/>
  <polyline class="horizontal" points="855,1860 -130,1860 -165,1860 	"/>
  <polyline class="horizontal" points="855,1890 -130,1890 -165,1890 	"/>
  <polyline class="horizontal" points="855,1920 -130,1920 -165,1920 	"/>
  <polyline class="horizontal" points="855,1950 -130,1950 -165,1950 	"/>
  <polyline class="horizontal" points="855,1980 -130,1980 -165,1980 	"/>
  <polyline class="horizontal" points="855,2010 -130,2010 -165,2010 	"/>
  <polyline class="horizontal" points="855,2040 -130,2040 -165,2040 	"/>
  <polyline class="horizontal" points="855,2070 -130,2070 -165,2070 	"/>
  <polyline class="horizontal" points="855,2100 -130,2100 -165,2100 	"/>
  <polyline class="horizontal" points="855,2130 -130,2130 -165,2130 	"/>
  <polyline class="horizontal" points="855,2160 -130,2160 -165,2160 	"/>
  <polyline class="horizontal" points="855,2190 -130,2190 -165,2190 	"/>
  <polyline class="horizontal" points="855,2220 -130,2220 -165,2220 	"/>
  <polyline class="horizontal" points="855,2250 -130,2250 -165,2250 	"/>
  <polyline class="horizontal" points="855,2280 -130,2280 -165,2280 	"/>
  <polyline class="horizontal" points="855,2310 -130,2310 -165,2310 	"/>
  <polyline class="horizontal" points="855,2340 -130,2340 -165,2340 	"/>
  <polyline class="horizontal" points="855,2370 -130,2370 -165,2370 	"/>
  <polyline class="horizontal" points="855,2400 -130,2400 -165,2400 	"/>
  <polyline class="horizontal" points="855,2430 -130,2430 -165,2430 	"/>
  <polyline class="horizontal" points="855,2460 -130,2460 -165,2460 	"/>
  <polyline class="horizontal" points="855,2490 -130,2490 -165,2490 	"/>
  <polyline class="horizontal" points="855,2520 -130,2520 -165,2520 	"/>
  <polyline class="horizontal" points="855,2550 -130,2550 -165,2550 	"/>
  <polyline class="horizontal" points="855,2580 -130,2580 -165,2580 	"/>
  <polyline class="horizontal" points="855,2610 -130,2610 -165,2610 	"/>
  <polyline class="horizontal" points="855,2640 -130,2640 -165,2640 	"/>
  <polyline class="horizontal" points="855,2670 -130,2670 -165,2670 	"/> -->
</g>

</svg>
