<?xml version="1.0" encoding="utf-8"?>
<!-- Generator: Adobe Illustrator 22.1.0, SVG Export Plug-In . SVG Version: 6.00 Build 0)  -->
<svg version="1.1" id="_x32_377f5c3-0a7f-4790-9f8f-19a09ca50ce0"
	 xmlns="http://www.w3.org/2000/svg" xmlns:xlink="http://www.w3.org/1999/xlink" x="0px" y="0px" viewBox="0 0 855 2700"
	 style="enable-background:new 0 0 855 2700;" xml:space="preserve">

  <style type="text/css">
     .vertical{fill:none;stroke:white;stroke-miterlimit:10;stroke-width:0.54px;}
  </style>

      <g>
        <polyline class="vertical" points="-165 2700 -165 45 -165 0"/>
        <polyline class="vertical" points="-135 2700 -135 45 -135 0"/>
        <polyline class="vertical" points="-105 2700 -105 45 -105 0"/>
        <polyline class="vertical" points="-75 2700 -75 45 -75 0"/>
        <polyline class="vertical" points="-45 2700 -45 45 -45 0"/>
        <polyline class="vertical" points="-15 2700 -15 45 -15 0"/>
        <polyline class="vertical" points="15 2700 15 45 15 0"/>
        <polyline class="vertical" points="45 2700 45 45 45 0"/>
        <polyline class="vertical" points="75 2700 75 45 75 0"/>
        <polyline class="vertical" points="105 2700 105 45 105 0"/>
        <polyline class="vertical" points="135 2700 135 45 135 0"/>
        <polyline class="vertical" points="165 2700 165 45 165 0"/>
        <polyline class="vertical" points="195 2700 195 45 195 0"/>
        <polyline class="vertical" points="225 2700 225 45 225 0"/>
        <polyline class="vertical" points="255 2700 255 45 255 0"/>
        <polyline class="vertical" points="285 2700 285 45 285 0"/>
        <polyline class="vertical" points="315 2700 315 45 315 0"/>
        <polyline class="vertical" points="345 2700 345 45 345 0"/>
        <polyline class="vertical" points="375 2700 375 45 375 0"/>
        <polyline class="vertical" points="405 2700 405 45 405 0"/>
        <polyline class="vertical" points="435 2700 435 45 435 0"/>
        <polyline class="vertical" points="465 2700 465 45 465 0"/>
        <polyline class="vertical" points="495 2700 495 45 495 0"/>
        <polyline class="vertical" points="525 2700 525 45 525 0"/>
        <polyline class="vertical" points="555 2700 555 45 555 0"/>
        <polyline class="vertical" points="585 2700 585 45 585 0"/>
        <polyline class="vertical" points="615 2700 615 45 615 0"/>
        <polyline class="vertical" points="645 2700 645 45 645 0"/>
        <polyline class="vertical" points="675 2700 675 45 675 0"/>
        <polyline class="vertical" points="705 2700 705 45 705 0"/>
        <polyline class="vertical" points="735 2700 735 45 735 0"/>
        <polyline class="vertical" points="765 2700 765 45 765 0"/>
        <polyline class="vertical" points="795 2700 795 45 795 0"/>
        <polyline class="vertical" points="825 2700 825 45 825 0"/>
        <polyline class="vertical" points="855 2700 855 45 855 0"/>
      </g>
</svg>
