<svg id="f13894f4-4ae9-4853-ab8c-6a37afcfc603" data-name="Layer 1" xmlns="http://www.w3.org/2000/svg" viewBox="0 0 91 30"><defs><style>.b17762bd-d230-48dc-8227-c11f03797c82{fill:#231f20;}</style></defs><title>believing</title><path class="b17762bd-d230-48dc-8227-c11f03797c82" d="M4.7,3.7h2a.1.1,0,0,0,.1.1h.1l1.5.5a5,5,0,0,1,2.1,2.2,5,5,0,0,1,.4,1.9h0v.7a6.4,6.4,0,0,1-.5,2.2,9.4,9.4,0,0,1-1.2,2.2l-.5.6-.5.3-.6.4h0l1.1.5h.4a2.3,2.3,0,0,1,1.2,1.5,11.9,11.9,0,0,1,.6,2.1h0V20h0v1.2h0a11.4,11.4,0,0,1-.1,1.5h0a6.1,6.1,0,0,1-.7,2.8q-.9,1.3-1.5,1.5a4.5,4.5,0,0,1-1.8.7l-2.3.6-3.1.4H.2a3.4,3.4,0,0,0,.1-.9h0a3.2,3.2,0,0,0,.1-.8h0a.8.8,0,0,1,.1-.4h0c-.1-.1-.1-.1-.1-.2a1.8,1.8,0,0,0,.1-.5h0v-.2h0v-.3c0-.1,0-.1-.1-.1a6.2,6.2,0,0,0,.1-.9v-.2h0l.2-1.6h0L1,19.7v-.3c0-.1-.1-.1-.1-.2H1a1.7,1.7,0,0,1-.1-.8h0v-.3h0v-.7C.9,14.5.8,12.8.7,12.2a4.3,4.3,0,0,0,.1-.5,1.3,1.3,0,0,1-.1-.6v-.6h0V10A7.1,7.1,0,0,0,.6,8.6H.7A7.6,7.6,0,0,1,.6,6.9h0V6.5c.1-.1.1-.3.1-.6a.8.8,0,0,1-.1-.4h0V5.2h0V4.8l1.1-.4.7-.2c0-.1.4-.2,1.1-.3Zm0,5.9h0v1h0c0,.1,0,.2-.1.2a4.4,4.4,0,0,1,.1.9v1h0v.3h0A3.4,3.4,0,0,0,6.3,13l.6-.9.2-.6h0v-.2a.8.8,0,0,0-.2-.5h0a1.3,1.3,0,0,0-.6-.7,3.4,3.4,0,0,0-1.4-.2H4.7Zm.4,9.2v.3h0v1.7h0v1.3h0v.8h0v1.1l1-.3c.3,0,.7-.3,1.3-.9s.3-.4.3-.5l.3-.8a1.3,1.3,0,0,0,.1-.6v-.8c0-.2-.1-.4-.4-.9h0a2.7,2.7,0,0,0-1.4-1H5.1Z"/><path class="b17762bd-d230-48dc-8227-c11f03797c82" d="M21.7,1.8h.2c0,.2,0,.3-.1.4h0a4.3,4.3,0,0,0-.2,1.2,2.8,2.8,0,0,1-.1.5h.1a3.4,3.4,0,0,0-.1,1.1h0a3.1,3.1,0,0,0-.1.9h0c0,.3,0,.5-.1.5h.1a.3.3,0,0,0-.1.2.4.4,0,0,0,.1.3h-.1v.2h-.1a1.1,1.1,0,0,1,.1.5c0,.4-.1.8-.1,1v.8h-5c-.4,0-.6.1-.6.2h0a1.7,1.7,0,0,1-.1.8h.1a3.7,3.7,0,0,0-.1,1.1h0v1.2c0,.2.1.3.2.3h.1l1,.2h2.6c-.1.1-.1.3-.2.7s-.1.3-.1.7-.1.2-.1.6v2H17.4c-.6,0-.9.1-.9.2a6.4,6.4,0,0,1-.2.7h.1V19h0v.2h0a.9.9,0,0,0-.1.5v.2h0v1.2h0v.6h0a.2.2,0,0,0,.2.2h.7l1.4-.2h2.1a8.3,8.3,0,0,1-.2,1.3h0c0,.2-.1.4-.1.8h0v1.1a6.8,6.8,0,0,1,.1,1.2h0v1.1h0c0,.2.1.5.1.7h0a1.8,1.8,0,0,0,.1.6h-.5l-.9-.2h-.1c0-.1-.3-.1-1-.1H11.4a1.4,1.4,0,0,0,.2-.6v-.2h0v-.2a4.5,4.5,0,0,0,.1-1.3c.1,0,.1-.1.1-.2h0a3.2,3.2,0,0,1,.1-.7h-.1c.1-.1.1-.3.1-.6h0c0-.4,0-.6.1-.6h-.1a.1.1,0,0,1,.1-.1h-.1a1.3,1.3,0,0,0,.1-.6h0a6.2,6.2,0,0,0,.1-1.3h0v-.7h-.1v-.4h0c0-.1.1-.3.1-.4V18.2h0v-.8h0v-.7h0c0-.8,0-1.2.1-1.3V15a3.5,3.5,0,0,1,.1-.7.3.3,0,0,0-.1-.2h.1a5,5,0,0,1-.1-1.5v-.4h0V9.6h0V9.3h0V8.8h0V8.3h0V7.4h.1a2,2,0,0,1-.1-.7h0V6.1h0V5.2a2,2,0,0,0-.1-.8V4h0a.3.3,0,0,1-.1-.2h0V3.1h0c0-.3,0-.4.1-.4h4.5l.9-.2h.2L18.8,2h2.9Z"/><path class="b17762bd-d230-48dc-8227-c11f03797c82" d="M27,1.1h.2c-.3,1.9-.4,3.6-.5,4.9a.1.1,0,0,0-.1.1h.1V8.3h0v.2h0V9h0v.3h-.1V10a1.8,1.8,0,0,1-.1.5v.3h0v.2h.1v.2h0v1.5h0v.4h0v.6a1,1,0,0,1-.1.4h.1v1.4h0v1.1h0v1.5h0v.2h0v1.6a2.5,2.5,0,0,1,.1.8h0c0,.1,0,.1-.1.1s.1.1.1.2h0v.2c.1.1.1.4,0,.8a17.5,17.5,0,0,0,3.6.2h2.1l1.6-.3h1.2a5.9,5.9,0,0,1-.1,1.1c0,.5-.1.8-.1,1.1v.7c0,.1,0,.1-.1.2v2.5h-8c-.1,0-.1,0-.1-.1H22.4a14.8,14.8,0,0,0,.1-2,4.2,4.2,0,0,0,.1-.7h0v-.2a5.9,5.9,0,0,1,.1-1.1h0V23.8h0a5.1,5.1,0,0,0,.1-1h0v-.2a2.2,2.2,0,0,1,.1-.9c-.1,0-.1,0-.1-.1v-.2a.3.3,0,0,1-.1-.2v-.7a21.1,21.1,0,0,1,.2-2.5H23a8.2,8.2,0,0,0,.1-1.4h0V16h0v-.5h-.1c0-.2.1-.2.1-.3v-.5h.1a1.9,1.9,0,0,1-.1-.8v-.3h0v-.6h0V11.3h0a1.3,1.3,0,0,1,.1-.6h-.1a5.6,5.6,0,0,1,.1-.7h-.1V9h0a8.2,8.2,0,0,1-.1-1.4V7.3h0V7.1h-.1V6.9a13.9,13.9,0,0,1-.1-1.7h0V4.6h0V3.9a.1.1,0,0,0-.1-.1h0V3.1h.1q-.2-.7-.3-1.8H27Z"/><path class="b17762bd-d230-48dc-8227-c11f03797c82" d="M40.8,10H41a.8.8,0,0,0-.2.5v.2a1.1,1.1,0,0,1-.2.6v.9s-.1.4-.2,1.1h.1c-.1,0-.2.5-.3,1.4h0v.6h0c0,.3,0,.4-.1.4h.1c0,.1-.1.1-.1.2h.1v.2h0c-.1.1-.1.4-.1,1.1v.2a11.3,11.3,0,0,1-.1,1.4h0v.9h0v.2h0v.2h0v.2h0v.6h0v.7h0v1.4c0,.4.1.7.1.9h0a9.3,9.3,0,0,0,.1,1.3h0l.3,1.7a1.3,1.3,0,0,1,.2.8H36.8c0,.1-.2.1-.4.2h-.3c.1-.6.2-1.4.3-2.3h0a3.8,3.8,0,0,0,.1-1.2h0V24.1h0V22.7h0V21.1h0V20h0v-.2h0v-.3h0c0-.2-.1-.4-.1-.7v-.3h.1a.3.3,0,0,1-.1-.2h0V16.6c-.1-.1-.1-.3-.1-.9s-.1-.1-.1-.3h0v-.6h.1l-.4-2.9a6.2,6.2,0,0,0-.1-.9h0v-.4h3.6c.5,0,.7,0,.7-.1h.7ZM38.5,1.9a2.9,2.9,0,0,1,1.2.2,1.8,1.8,0,0,1,.8,1.2A7.9,7.9,0,0,1,40.7,5v.6c0,.1,0,.2-.1.2h.1v.2h.1a4.1,4.1,0,0,1-.5,1.8.6.6,0,0,1-.6.5l-.9.3h-.5a2.6,2.6,0,0,1-2-1,2.4,2.4,0,0,1-.3-.7h0V6.7h0V5.3a9.3,9.3,0,0,1,.3-2.1,1.7,1.7,0,0,1,1-1A2.7,2.7,0,0,1,38.5,1.9Z"/><path class="b17762bd-d230-48dc-8227-c11f03797c82" d="M51.7,1.8h.2a.5.5,0,0,1-.2.4h.1a2.3,2.3,0,0,0-.2,1.2s-.1.1-.1.5h0a4.9,4.9,0,0,1-.1,1.1h.1c-.1,0-.1.3-.1.9h0a1.2,1.2,0,0,1-.1.5h0v.5h0v.2h0v.5a2.8,2.8,0,0,1-.1,1v.8H46.3c-.4,0-.6.1-.6.2h0c0,.4-.1.6-.1.8h0v1.1h0v1.2c0,.2.1.3.2.3h.1l1,.2h2.5a2.6,2.6,0,0,1-.1.7c-.1.1-.1.3-.2.7v2.6H47.4c-.7,0-1,.1-1,.2a1.5,1.5,0,0,1-.1.7h0V19h0v.2h0v.7h0a2.8,2.8,0,0,1-.1.6,1.3,1.3,0,0,1,.1.6h0v.6h0a.3.3,0,0,0,.1.2h.8l1.4-.2h2.1a3.9,3.9,0,0,1-.3,1.3h.1a4.5,4.5,0,0,0-.2.8h.1v.2c0,.2.1.4.1.6v.3c0,.6.1,1,.1,1.2h0v1.1h0a1.7,1.7,0,0,0,.1.7h0a1.8,1.8,0,0,0,.1.6h-.5l-.9-.2h-.1c0-.1-.3-.1-1-.1H41.4a1.3,1.3,0,0,0,.1-.6v-.2h.1v-.2c0-.3.1-.7.1-1.3a.3.3,0,0,1,.1-.2h-.1a.1.1,0,0,0,.1-.1h-.1c.1,0,.1-.3.1-.7h0a3.5,3.5,0,0,0,.1-.6h0v-.6h0c0-.2.1-.4.1-.6h0c0-.5.1-.9.1-1.3h0v-.7h0v-.4h0a.6.6,0,0,1,.1-.4c0-.1-.1-.3-.1-.4s.1-.8.1-1.3h0a5.4,5.4,0,0,1-.1-.8h0v-.7h0V14.1h0V12.2h0v-.4a.4.4,0,0,0-.1-.3c.1-.1.1-.3.1-.6V9.6h-.1V9.3h0V8.8a.1.1,0,0,0-.1-.1h0a.4.4,0,0,0,.1-.3h0V7.4h0V6.6h0V6.1h0V5.6a.8.8,0,0,1,.1-.4,6,6,0,0,1-.1-.8V4h.1c-.1,0-.1-.1-.1-.2h0V3.1h-.1c.1-.3.1-.4.2-.4h4.5l.9-.2h.2L48.8,2h2.9Z"/><path class="b17762bd-d230-48dc-8227-c11f03797c82" d="M51.5.9h0l1,.2h2.4c.1,0,.1.1.2.2a6.8,6.8,0,0,0-.2,1.4h0v.5a2.5,2.5,0,0,1-.1.8h0v.3h0v.8h0v.8h0v.7c.1,0,.1,0,.1.1h0v.6h.1c-.1.1-.1.4-.1.9h0V12h0v1.9h0c0,.3.1.5.1.8h0v.3h0a.7.7,0,0,0,.1.5h0v.8a2.8,2.8,0,0,0,.1,1.1h-.1v.6h0a11.3,11.3,0,0,0,.2,1.9.1.1,0,0,0-.1.1h.1v-.2h0a21.2,21.2,0,0,0,.6-3.6H56a11.3,11.3,0,0,1,.2-1.2h0v-.2a5.6,5.6,0,0,1,.1-.7h0a13,13,0,0,0,.2-1.7.1.1,0,0,0,.1-.1h-.1c.1,0,.1-.1.1-.2h0a8.4,8.4,0,0,1,.2-1h-.1a.3.3,0,0,0,.1-.2v-1h0V8.7h0a3.5,3.5,0,0,0,.1-.6h-.1a.8.8,0,0,0,.1-.3h0a.4.4,0,0,1,.1-.3h-.1V6.2h0v-1h0V3h0a1,1,0,0,1,.1-.4V2.3c.1-.2.1-.3.2-.3h.2c0-.1,0-.1.1-.1a.1.1,0,0,0,.1.1h1l1.1-.2h1l1-.3h.1A2.9,2.9,0,0,0,61.4,3h0c-.1,0-.1.4-.3,1.2a4.5,4.5,0,0,1-.1.8h.1a8.5,8.5,0,0,0-.4,2.3,15.2,15.2,0,0,0-.3,1.9h0c0,.2-.1.4-.1.7h0v.5h0a1,1,0,0,1-.1.4h.1v.9h0a.8.8,0,0,1-.1.4h.1v.5h0v.4h0v.6c-.1.1-.1.3-.1.6h0l-.2,1.2h0v.6h0v.9h-.1V19h0c0,.2-.1.4-.1.7V20h0l-.2,2.5v.3h0v.2h0a3.7,3.7,0,0,1-.1.8v.6h0a4.3,4.3,0,0,0-.1.5v.2h0v2.2c0,.4,0,.7-.1.8H54.5l-1.9.2h-.2v-.8h0V26.5h0a7.7,7.7,0,0,1,.1-1v-.2h0v-.2c0-.2,0-.3-.1-.3v-.2c0-.2,0-.3-.1-.4a1.3,1.3,0,0,0,.1-.6v-.3h0V21.2h0v-.7h0v-.2h0a.3.3,0,0,1,.1-.2,6.6,6.6,0,0,1-.1-1.1h0V15.9h0a8.2,8.2,0,0,0-.1-1.4v-.2h0v-.3h0a2.5,2.5,0,0,0-.1-.8h.1V10.4h0v-.2a43.3,43.3,0,0,1-.2-4.4c-.1-1-.3-2.2-.5-3.5a6.1,6.1,0,0,0-.3-1.1h.1Z"/><path class="b17762bd-d230-48dc-8227-c11f03797c82" d="M67.1,10h.1a4.3,4.3,0,0,0-.1.5v.2a1.1,1.1,0,0,1-.2.6v.9c-.1,0-.1.4-.2,1.1h0c-.1,0-.1.5-.2,1.4h0a1.5,1.5,0,0,1-.1.6h0v.4h0v.2h0v.2h0c-.1.1-.1.4-.2,1.1v.2a3.8,3.8,0,0,0-.1,1.4h0a4.3,4.3,0,0,0-.1.5v.4a.1.1,0,0,0,.1.1c0,.1-.1.1-.1.2h0v.2h-.1v.2h0a1.3,1.3,0,0,1-.1.6h.1a.3.3,0,0,1-.1.2v.5h0v1.4a6.4,6.4,0,0,0,.2.9h0a9.3,9.3,0,0,0,.1,1.3h0l.3,1.7c.1.1.1.4.2.8H63.1l-.5.2h-.3c0-.1,0-.1.1-.1h-.1a12,12,0,0,0,.4-2.3h0V25.4h0v-.3a.3.3,0,0,1-.1-.2,4.5,4.5,0,0,0,.1-.8h0V22.7h0V21.1a.1.1,0,0,0-.1-.1h0v-.6c0-.1.1-.1.1-.2h0v-.2h.1v-.3h0v-1h0V18h0a10.3,10.3,0,0,1-.1-1.3,5.1,5.1,0,0,0-.1-.9v-.3h0v-.6h0l-.3-2.9a6.6,6.6,0,0,1-.2-.9H62l-.2-.4h3.7c.4,0,.7,0,.7-.1h.6ZM64.8,1.9a2,2,0,0,1,1.1.2,1.5,1.5,0,0,1,.8,1.2c.1.5.2,1,.3,1.7s-.1.1-.1.2v.4a.3.3,0,0,1-.1.2h0v.2h0a3.9,3.9,0,0,1-.4,1.8c-.2.3-.4.5-.6.5l-1,.3h-.4a2.5,2.5,0,0,1-2-1,2.4,2.4,0,0,1-.3-.7h0V6.7a.1.1,0,0,0-.1-.1h.1a7.2,7.2,0,0,1-.1-1.3,4.8,4.8,0,0,1,.4-2.1,1.8,1.8,0,0,1,.9-1A3.2,3.2,0,0,1,64.8,1.9Z"/><path class="b17762bd-d230-48dc-8227-c11f03797c82" d="M78.2,1.3l.2.2a31.2,31.2,0,0,0-.5,3.2v.4h.1v.3h0a.3.3,0,0,0-.1.2v.2h0v.3h0a8.9,8.9,0,0,0-.1,1.3h0v.2h0a.6.6,0,0,0,.1.4h0c0,.1-.1.2-.1.4h0v.2h0v.4h0c0,.1,0,.2-.1.2h.1c-.1.6-.1.9-.2.9h.1a.4.4,0,0,1-.1.3h0a19.3,19.3,0,0,0-.1,2.4h-.1v.8h0v.4a2.6,2.6,0,0,1-.1.7,2.8,2.8,0,0,1,.1.6h0v1.5h0v.4a1.3,1.3,0,0,1-.1.6l.2,2h0c.2,1.7.3,2.5.3,2.7h-.1c.1.1.1.1.1.2h0v.7c0,.2.1.7.2,1.7s-.1.1-.1.2.1.2.1.7H74.3l-.2-.3h0c-.1-.7-.2-1.3-.3-1.7h.1c-.1-.2-.1-.4-.2-.5h.1a21.7,21.7,0,0,0-1-4.2c0-.1-.1-.3-.2-.7h0v-.3c-.1,0-.1.4-.1,1h0v.5h0v.5h0v2.2h0v1h0v.3h0v1.4h0v.5h0c0,.2.1.4.1.6h0v.5h0a.4.4,0,0,0,.1.3V30h-.4l-1.1-.3H68.4l-.6.2h-.1v-.2h0a2.5,2.5,0,0,1,.2-1.2h-.1c0-.1,0-.1.1-.1h-.1c0-.1.1-.2.1-.3h0c0-.3,0-.5.1-.5H68a.1.1,0,0,0,.1-.1c0-.2-.1-.3-.1-.4s.1-.1.1-.2h0c0-.1,0-.1-.1-.1V25.1h0v-.3a.4.4,0,0,0-.1-.3V22.8h0v-.2h0v-.4h0v-.4h0v-1h0V20h0v-.7H68a.1.1,0,0,1,.1-.1c0-.4-.1-.7-.1-.9v-.6h0V16.1h0v-.4h0v-.2h0V13.6h0v-.3h0v-.3h0v-.6h0V10h0a1.2,1.2,0,0,0-.1-.5H68V7.7h0V7.3h0V6.4c0-.5,0-.8.1-.8h1.9l1.7-.3c.2.2.2.4.3.6h-.1a18.5,18.5,0,0,0,.4,2.3,14.8,14.8,0,0,0,.4,2.4l.6,2.5c.1,0,.2.5.4,1.5h.1c0-.4,0-.6.1-.6h-.1c.1-1,.2-1.7.2-2.2v-.9h0v-2h0V8.3h0V6.7h0V6.1h0a1.3,1.3,0,0,1-.1-.6h0V2.7h-.1c0-.1,0-.1.1-.1V1.9h3.8Z"/><path class="b17762bd-d230-48dc-8227-c11f03797c82" d="M85.3.4h1.5c.1.1.3.2.8.2h.9L90,.9h.1c-.2,1.3-.3,2.5-.4,3.5h0v.8h0v.7h0v.2a2.8,2.8,0,0,1,.1.6h0v.7H87.1l-1.2.2a6.2,6.2,0,0,0-1.9.7c-.2.2-.4.3-.5.5a3.9,3.9,0,0,0-.4,1v.3h0v.3H83a1,1,0,0,0,.1.4H83v.2h-.1v.8h-.1v.5h.1v.5h0v.9h0v.2h0v.5h0v.8h0c-.1,0-.1,0-.1.1h0V18h-.1a.4.4,0,0,1,.1.3.8.8,0,0,0-.1.4c0,.1.1.2.1.3v.2a.1.1,0,0,1-.1.1V20h0v.9h0a4.9,4.9,0,0,0,.3,1.3h0a5,5,0,0,0,.5,1.3,2.3,2.3,0,0,0,1.5,1.2l.7.2h.4c0,.1,0,.1.1.1s.7-.4.9-1,.1-.6.1-.9V21.7h0l-.6-.2H85l-.7.2h-.2a1,1,0,0,1-.2-.7v-.2h0v-1h0V16.2h0a13.6,13.6,0,0,0-.1-1.5h0a1.5,1.5,0,0,0-.1-.6.3.3,0,0,1,.3-.3h4a.1.1,0,0,1,.1-.1h.4a.1.1,0,0,0,.1.1h1.6v.3h0v.2a.7.7,0,0,0,.1.5,3.1,3.1,0,0,0-.1,1h0v.2h0a.4.4,0,0,0,.1.3v.4h-.1v3.4h0c0,.2.1.5.1,1h0v.2h0c0,2.1.1,3.7.2,4.8s.1,1.9.1,2.3l-4.3.4-2.4.2H83c-1.5-.4-2.3-.7-2.3-.9l-.8-.8a3.5,3.5,0,0,1-.6-1.6,24.4,24.4,0,0,1-.4-2.6H79a3.5,3.5,0,0,1-.1-.6h0v-.6h0v-.4h0v-.5h0v-.3h0v-.5h0v-.6h0v-.4h0c0-.1-.1-.1-.1-.2h.1v-.4c0-.2,0-.3.1-.4v-.3a2.6,2.6,0,0,0,.1-.7h0v-.2h0v-.7h0v-.2h0v-.2c0-.2.1-1,.1-2.7a4.1,4.1,0,0,0,.2-.9h-.1v-.6h0V9.4h0V9c0-.2.1-.7.2-1.3V7.3h0c0-.1.1-.4.2-1.1A11.6,11.6,0,0,1,80.1,4a5.3,5.3,0,0,1,.6-1.3,2.6,2.6,0,0,1,1.1-1.4A3.5,3.5,0,0,1,83.4.7,4.4,4.4,0,0,1,85.3.4Z"/></svg>
