<svg id="b17fd39b-1b5d-4d5e-9cf7-cbc5fe7e8fb6" data-name="Layer 1" xmlns="http://www.w3.org/2000/svg" viewBox="0 0 1132 104.8"><defs><style>.a282c8e5-c5f1-4713-add2-9c37c0cde587{fill:#231f20;}</style></defs><title>deepinsideofme</title><path class="a282c8e5-c5f1-4713-add2-9c37c0cde587" d="M182.8,12.8V77.2H166.1V70.3a26.1,26.1,0,0,1-6.4,6,19.2,19.2,0,0,1-8.7,2c-6.3,0-11.2-2.4-14.5-7.3s-5.1-10.7-5.1-17.6,1.9-13.7,5.6-17.8a18.1,18.1,0,0,1,14.1-6.1,20.6,20.6,0,0,1,7.6,1.4,16.7,16.7,0,0,1,6.1,4.2V12.8Zm-17.9,41c0-3.7-.8-6.4-2.3-8.2a7.6,7.6,0,0,0-5.9-2.7,6.6,6.6,0,0,0-5.3,2.5q-2.1,2.7-2.1,8.7c0,3.9.8,6.6,2.2,8.4a6.7,6.7,0,0,0,5.4,2.7,7.1,7.1,0,0,0,5.7-2.7C164.1,60.7,164.9,57.8,164.9,53.8Z"/><path class="a282c8e5-c5f1-4713-add2-9c37c0cde587" d="M245.5,58.3H209.7a11.5,11.5,0,0,0,2.3,6.4,8.3,8.3,0,0,0,6.8,3.1,11.3,11.3,0,0,0,5-1.3,14.1,14.1,0,0,0,3.1-3l17.6,1.6c-2.7,4.7-5.9,8.1-9.7,10.1s-9.3,3.1-16.4,3.1-11.1-.9-14.6-2.6a21.9,21.9,0,0,1-8.8-8.3A24.6,24.6,0,0,1,191.5,54c0-7.3,2.3-13.2,7-17.7s11.1-6.8,19.3-6.8q10,0,15.9,3a20.8,20.8,0,0,1,8.8,8.8c2,3.9,3,8.8,3,15Zm-18.2-8.5c-.3-3.5-1.3-6-2.8-7.5a8,8,0,0,0-5.9-2.2,7.9,7.9,0,0,0-6.8,3.4,12.3,12.3,0,0,0-2.1,6.3Z"/><path class="a282c8e5-c5f1-4713-add2-9c37c0cde587" d="M305.6,58.3H269.7a11.5,11.5,0,0,0,2.3,6.4,8.4,8.4,0,0,0,6.8,3.1,11.3,11.3,0,0,0,5-1.3,12.2,12.2,0,0,0,3.1-3l17.6,1.6c-2.7,4.7-5.9,8.1-9.7,10.1s-9.3,3.1-16.4,3.1-11.1-.9-14.6-2.6a22.5,22.5,0,0,1-8.8-8.3A25.5,25.5,0,0,1,251.5,54c0-7.3,2.3-13.2,7-17.7s11.1-6.8,19.4-6.8c6.6,0,11.9,1,15.8,3a20.2,20.2,0,0,1,8.8,8.8c2,3.9,3.1,8.8,3.1,15Zm-18.2-8.5c-.4-3.5-1.3-6-2.8-7.5a8.8,8.8,0,0,0-12.8,1.2,12.3,12.3,0,0,0-2.1,6.3Z"/><path class="a282c8e5-c5f1-4713-add2-9c37c0cde587" d="M313.9,95V30.5h16.7v6.9a20.5,20.5,0,0,1,6.4-5.8,17.9,17.9,0,0,1,8.6-2.1c6.3,0,11.1,2.4,14.5,7.2s5.1,10.6,5.1,17.7-1.8,13.7-5.6,17.7a18.2,18.2,0,0,1-14.1,6.2,20.4,20.4,0,0,1-7.5-1.4,19.6,19.6,0,0,1-6.1-4.2V95Zm17.9-41c0,3.7.8,6.4,2.3,8.2a7.5,7.5,0,0,0,5.9,2.7,6.2,6.2,0,0,0,5.2-2.6q2.1-2.5,2.1-8.7c0-3.8-.7-6.5-2.2-8.3a6.5,6.5,0,0,0-5.3-2.7,7.1,7.1,0,0,0-5.7,2.7C332.5,47.1,331.8,50,331.8,54Z"/><path class="a282c8e5-c5f1-4713-add2-9c37c0cde587" d="M404.5,12.8h17.9V25H404.5Zm0,17.7h17.9V77.2H404.5Z"/><path class="a282c8e5-c5f1-4713-add2-9c37c0cde587" d="M433.8,30.5h16.6v7.7a23.1,23.1,0,0,1,7.6-6.7,20.3,20.3,0,0,1,9.3-2c5,0,8.8,1.5,11.6,4.4s4.2,7.5,4.2,13.7V77.2H465.2V51.6c0-3-.6-5-1.7-6.3a5.7,5.7,0,0,0-4.5-1.8,6.3,6.3,0,0,0-5.3,2.5c-1.4,1.6-2,4.6-2,8.8V77.2H433.8Z"/><path class="a282c8e5-c5f1-4713-add2-9c37c0cde587" d="M490.6,64.3l17.8-1.7a8.6,8.6,0,0,0,3.1,4.5,9.2,9.2,0,0,0,5.3,1.4,8.2,8.2,0,0,0,5.5-1.6,3.2,3.2,0,0,0,1.6-2.8,3.3,3.3,0,0,0-2-3c-1-.5-3.6-1.1-7.7-1.8a83.1,83.1,0,0,1-13-3,14.6,14.6,0,0,1-6.1-4.7,12.5,12.5,0,0,1-2.5-7.5,12.3,12.3,0,0,1,2.7-8,16.5,16.5,0,0,1,7.4-5c3.1-1.1,7.3-1.6,12.6-1.6s9.7.4,12.3,1.3a15.4,15.4,0,0,1,6.7,3.9,22.1,22.1,0,0,1,4.4,7.3l-17,1.6a6.5,6.5,0,0,0-2.2-3.3,9.3,9.3,0,0,0-5.1-1.4A7.3,7.3,0,0,0,510,40a3.3,3.3,0,0,0-1.4,2.6,2.8,2.8,0,0,0,1.8,2.6c1.2.6,3.7,1.1,7.6,1.6,6,.7,10.4,1.6,13.3,2.8a15.2,15.2,0,0,1,6.7,5.1,13.2,13.2,0,0,1,2.3,7.4,13.6,13.6,0,0,1-2.5,7.8,16.1,16.1,0,0,1-7.7,6.1c-3.5,1.5-8.2,2.3-14.3,2.3-8.5,0-14.6-1.2-18.2-3.7A16.8,16.8,0,0,1,490.6,64.3Z"/><path class="a282c8e5-c5f1-4713-add2-9c37c0cde587" d="M549.4,12.8h17.9V25H549.4Zm0,17.7h17.9V77.2H549.4Z"/><path class="a282c8e5-c5f1-4713-add2-9c37c0cde587" d="M627.9,12.8V77.2H611.1V70.3a23,23,0,0,1-6.4,6,18.5,18.5,0,0,1-8.6,2c-6.3,0-11.2-2.4-14.5-7.3s-5.1-10.7-5.1-17.6,1.9-13.7,5.6-17.8a18.1,18.1,0,0,1,14.1-6.1,20.6,20.6,0,0,1,7.6,1.4,15.6,15.6,0,0,1,6,4.2V12.8ZM610,53.8c0-3.7-.8-6.4-2.4-8.2a7.4,7.4,0,0,0-5.9-2.7,6.5,6.5,0,0,0-5.2,2.5q-2.1,2.7-2.1,8.7c0,3.9.7,6.6,2.2,8.4a6.5,6.5,0,0,0,5.4,2.7,7.2,7.2,0,0,0,5.7-2.7C609.2,60.7,610,57.8,610,53.8Z"/><path class="a282c8e5-c5f1-4713-add2-9c37c0cde587" d="M690.6,58.3H654.7c.4,2.9,1.1,5,2.4,6.4a8.2,8.2,0,0,0,6.7,3.1,10.6,10.6,0,0,0,5-1.3,12.4,12.4,0,0,0,3.2-3l17.6,1.6c-2.7,4.7-6,8.1-9.8,10.1s-9.2,3.1-16.4,3.1-11-.9-14.5-2.6a22.8,22.8,0,0,1-8.9-8.3A25.5,25.5,0,0,1,636.5,54c0-7.3,2.4-13.2,7.1-17.7s11.1-6.8,19.3-6.8,12,1,15.8,3a21,21,0,0,1,8.9,8.8c2,3.9,3,8.8,3,15Zm-18.2-8.5c-.3-3.5-1.3-6-2.8-7.5a8,8,0,0,0-5.9-2.2,7.8,7.8,0,0,0-6.8,3.4,12.3,12.3,0,0,0-2.1,6.3Z"/><path class="a282c8e5-c5f1-4713-add2-9c37c0cde587" d="M726.6,54c0-7.1,2.4-13,7.2-17.6s11.3-6.9,19.5-6.9,16.4,2.7,21.2,8.1a23.9,23.9,0,0,1,5.7,16.2c0,7.1-2.3,13-7.1,17.6s-11.3,6.9-19.7,6.9-13.6-1.9-18.2-5.7A23.1,23.1,0,0,1,726.6,54Zm18,0c0,4.1.8,7.2,2.5,9.2a8.2,8.2,0,0,0,12.7,0c1.6-1.9,2.5-5.1,2.5-9.4s-.9-7.1-2.5-9a7.9,7.9,0,0,0-6.2-3,8.2,8.2,0,0,0-6.5,3C745.4,46.8,744.6,49.9,744.6,54Z"/><path class="a282c8e5-c5f1-4713-add2-9c37c0cde587" d="M808.8,30.5h8.5V43.6h-8.5V77.2h-18V43.6h-6.6V30.5h6.6V28.4a28.1,28.1,0,0,1,.7-6.2,11.4,11.4,0,0,1,2.3-5.6,11.6,11.6,0,0,1,4.7-3.6c2-.9,5-1.3,9-1.3a130.3,130.3,0,0,1,13.6,1.1l-2,10.8a39.2,39.2,0,0,0-5.1-.5c-1.7,0-2.8.2-3.5.8a4.4,4.4,0,0,0-1.5,2.6A18.5,18.5,0,0,0,808.8,30.5Z"/><path class="a282c8e5-c5f1-4713-add2-9c37c0cde587" d="M859.3,30.5H876v6.9a23,23,0,0,1,7.2-6.1,20.5,20.5,0,0,1,8.9-1.8,17.5,17.5,0,0,1,8.9,2,15.3,15.3,0,0,1,5.3,5.9,26.6,26.6,0,0,1,7.7-6.3,19.5,19.5,0,0,1,8.5-1.6q7.5,0,11.7,4.5c2.8,2.9,4.3,7.6,4.3,13.9V77.2h-18V50.6a7.8,7.8,0,0,0-1.2-4.7,5.4,5.4,0,0,0-4.5-2.4,6.5,6.5,0,0,0-5.1,2.3c-1.2,1.5-1.9,4-1.9,7.3V77.2H889.9V51.5a13.9,13.9,0,0,0-.4-4.2,5.4,5.4,0,0,0-1.9-2.8,5.8,5.8,0,0,0-3.4-1.1,6.2,6.2,0,0,0-5,2.4c-1.3,1.5-2,4.1-2,7.6V77.2H859.3Z"/><path class="a282c8e5-c5f1-4713-add2-9c37c0cde587" d="M1000.9,58.3H965.1a11.5,11.5,0,0,0,2.3,6.4,8.3,8.3,0,0,0,6.8,3.1,11.3,11.3,0,0,0,5-1.3,12.2,12.2,0,0,0,3.1-3l17.6,1.6c-2.7,4.7-5.9,8.1-9.7,10.1s-9.3,3.1-16.4,3.1-11.1-.9-14.6-2.6a21.9,21.9,0,0,1-8.8-8.3A25.5,25.5,0,0,1,946.9,54c0-7.3,2.3-13.2,7-17.7s11.1-6.8,19.4-6.8c6.6,0,11.9,1,15.8,3a20.8,20.8,0,0,1,8.8,8.8c2,3.9,3,8.8,3,15Zm-18.2-8.5q-.5-5.2-2.7-7.5a8.2,8.2,0,0,0-6-2.2,8,8,0,0,0-6.8,3.4,12.3,12.3,0,0,0-2.1,6.3Z"/></svg>