<svg id="a9a40f8f-f869-4c3f-afc4-76a9abbad530" data-name="Layer 1" xmlns="http://www.w3.org/2000/svg" viewBox="0 0 919.8 83.4"><defs><style>.a0a6adf9-0cec-4f13-b0e9-51bd6fdb849a{fill:#231f20;}</style></defs><title>everythingsalright</title><path class="a0a6adf9-0cec-4f13-b0e9-51bd6fdb849a" d="M202.2,58.3H166.4a11.5,11.5,0,0,0,2.3,6.4,8.3,8.3,0,0,0,6.8,3.1,11.3,11.3,0,0,0,5-1.3,12.2,12.2,0,0,0,3.1-3l17.6,1.6c-2.7,4.7-5.9,8.1-9.7,10.1s-9.3,3.1-16.4,3.1-11.1-.9-14.6-2.6a21.9,21.9,0,0,1-8.8-8.3A24.6,24.6,0,0,1,148.2,54c0-7.3,2.3-13.2,7-17.7s11.1-6.8,19.4-6.8c6.6,0,11.9,1,15.8,3a20.8,20.8,0,0,1,8.8,8.8c2,3.9,3,8.8,3,15ZM184,49.8q-.5-5.2-2.7-7.5a8.2,8.2,0,0,0-6-2.2,8,8,0,0,0-6.8,3.4,12.3,12.3,0,0,0-2.1,6.3Z" transform="translate(-148.2 -12.8)"/><path class="a0a6adf9-0cec-4f13-b0e9-51bd6fdb849a" d="M202.9,30.5h18.6l9,29.6,9.4-29.6H258L238.1,77.2H222.3Z" transform="translate(-148.2 -12.8)"/><path class="a0a6adf9-0cec-4f13-b0e9-51bd6fdb849a" d="M312.6,58.3H276.7c.3,2.9,1.1,5,2.4,6.4a8.1,8.1,0,0,0,6.7,3.1,10.9,10.9,0,0,0,5-1.3,14.2,14.2,0,0,0,3.2-3l17.6,1.6c-2.7,4.7-6,8.1-9.8,10.1s-9.3,3.1-16.4,3.1-11-.9-14.6-2.6a23.2,23.2,0,0,1-8.8-8.3A25.5,25.5,0,0,1,258.5,54c0-7.3,2.4-13.2,7-17.7s11.2-6.8,19.4-6.8,12,1,15.8,3a21,21,0,0,1,8.9,8.8c2,3.9,3,8.8,3,15Zm-18.2-8.5c-.4-3.5-1.3-6-2.8-7.5a8.8,8.8,0,0,0-12.8,1.2c-1.1,1.4-1.7,3.5-2,6.3Z" transform="translate(-148.2 -12.8)"/><path class="a0a6adf9-0cec-4f13-b0e9-51bd6fdb849a" d="M321,30.5h16.7v7.7c1.6-3.3,3.3-5.6,5-6.8a10.1,10.1,0,0,1,6.4-1.9,18.1,18.1,0,0,1,8.6,2.5l-5.5,12.7a13.6,13.6,0,0,0-5-1.3,6.1,6.1,0,0,0-5.5,2.9Q339,50.4,339,61.6V77.2H321Z" transform="translate(-148.2 -12.8)"/><path class="a0a6adf9-0cec-4f13-b0e9-51bd6fdb849a" d="M360.8,30.5h18.9l9.6,31.1,9-31.1h17.6L397.4,80.4c-2.1,5.7-4.3,9.5-6.5,11.5s-7.8,4.3-14.2,4.3a107,107,0,0,1-11.9-1.1l-1.4-12.5a28.8,28.8,0,0,0,8.6,1.3,8.1,8.1,0,0,0,5.1-1.5,11.1,11.1,0,0,0,3.3-5.2Z" transform="translate(-148.2 -12.8)"/><path class="a0a6adf9-0cec-4f13-b0e9-51bd6fdb849a" d="M442.5,12.8V30.5h9.9V43.6h-9.9V60.2q0,3,.6,3.9a3.3,3.3,0,0,0,3.1,1.5,21.8,21.8,0,0,0,5.5-1.1L453,76.8a55.9,55.9,0,0,1-12.4,1.5c-4.4,0-7.7-.6-9.8-1.7a10.8,10.8,0,0,1-4.7-5.2c-1-2.4-1.5-6.1-1.5-11.3V43.6H418V30.5h6.6V22Z" transform="translate(-148.2 -12.8)"/><path class="a0a6adf9-0cec-4f13-b0e9-51bd6fdb849a" d="M460.9,12.8h17.9V36.5a24.2,24.2,0,0,1,7.2-5.4,20.6,20.6,0,0,1,8.6-1.6c4.8,0,8.7,1.5,11.5,4.4s4.1,7.5,4.1,13.7V77.2H492.3V51.6c0-3-.6-5-1.7-6.3a5.7,5.7,0,0,0-4.5-1.8,6.4,6.4,0,0,0-5.3,2.5c-1.3,1.6-2,4.6-2,8.8V77.2H460.9Z" transform="translate(-148.2 -12.8)"/><path class="a0a6adf9-0cec-4f13-b0e9-51bd6fdb849a" d="M521.6,12.8h17.9V25H521.6Zm0,17.7h17.9V77.2H521.6Z" transform="translate(-148.2 -12.8)"/><path class="a0a6adf9-0cec-4f13-b0e9-51bd6fdb849a" d="M550.9,30.5h16.7v7.7a22.8,22.8,0,0,1,7.5-6.7,20.6,20.6,0,0,1,9.3-2c5,0,8.9,1.5,11.7,4.4s4.1,7.5,4.1,13.7V77.2H582.3V51.6c0-3-.6-5-1.7-6.3a5.7,5.7,0,0,0-4.5-1.8,6.4,6.4,0,0,0-5.3,2.5c-1.3,1.6-2,4.6-2,8.8V77.2H550.9Z" transform="translate(-148.2 -12.8)"/><path class="a0a6adf9-0cec-4f13-b0e9-51bd6fdb849a" d="M643.4,30.5h16.7V76.7a19.1,19.1,0,0,1-1.9,8.4,17.6,17.6,0,0,1-4.9,6.4,21.4,21.4,0,0,1-7.9,3.6,50.8,50.8,0,0,1-10.9,1.1c-9.4,0-15.8-1.4-19.3-4.3A13.7,13.7,0,0,1,610,80.6a22,22,0,0,1,.1-2.3l17.4,2a5.4,5.4,0,0,0,2,3.3,8.4,8.4,0,0,0,4.9,1.4c2.6,0,4.5-.7,5.8-2.1s1.9-3.8,1.9-7.2V68.6a17.4,17.4,0,0,1-5.2,4.5,18.7,18.7,0,0,1-9,2.2c-6.2,0-11.2-2.7-15.1-8.1s-4.1-9-4.1-15.4S610.5,39,614,35.2s8.1-5.7,13.8-5.7a20,20,0,0,1,9,1.8,20.8,20.8,0,0,1,6.6,6.1ZM626.6,53.2q0,4.9,2.1,7.5a7.5,7.5,0,0,0,5.7,2.4,7.2,7.2,0,0,0,5.6-2.5c1.5-1.7,2.3-4.2,2.3-7.6s-.8-6-2.4-7.8a7.4,7.4,0,0,0-5.8-2.7,6.9,6.9,0,0,0-5.5,2.4C627.3,46.6,626.6,49.3,626.6,53.2Z" transform="translate(-148.2 -12.8)"/><path class="a0a6adf9-0cec-4f13-b0e9-51bd6fdb849a" d="M667.8,64.3l17.7-1.7a7.9,7.9,0,0,0,8.4,5.9,8.5,8.5,0,0,0,5.6-1.6,3.3,3.3,0,0,0-.5-5.8c-1-.5-3.5-1.1-7.7-1.8a84,84,0,0,1-12.9-3,13.5,13.5,0,0,1-6.1-4.7,11.9,11.9,0,0,1-2.5-7.5,12.3,12.3,0,0,1,2.7-8,15.7,15.7,0,0,1,7.3-5,39.8,39.8,0,0,1,12.6-1.6c5.6,0,9.7.4,12.4,1.3a15.7,15.7,0,0,1,6.6,3.9,19.2,19.2,0,0,1,4.4,7.3l-16.9,1.6a7.1,7.1,0,0,0-2.2-3.3,9.3,9.3,0,0,0-5.1-1.4,7.1,7.1,0,0,0-4.4,1.1,3,3,0,0,0-1.4,2.6,2.8,2.8,0,0,0,1.7,2.6c1.2.6,3.7,1.1,7.7,1.6,5.9.7,10.3,1.6,13.2,2.8a14.7,14.7,0,0,1,6.7,5.1,13.2,13.2,0,0,1,2.3,7.4,14.3,14.3,0,0,1-2.4,7.8,16.6,16.6,0,0,1-7.7,6.1c-3.5,1.5-8.3,2.3-14.3,2.3-8.6,0-14.6-1.2-18.2-3.7A16,16,0,0,1,667.8,64.3Z" transform="translate(-148.2 -12.8)"/><path class="a0a6adf9-0cec-4f13-b0e9-51bd6fdb849a" d="M772.3,45.7l-17.1-1.8a18.8,18.8,0,0,1,2.7-7.1,15.6,15.6,0,0,1,5.3-4.4,19.4,19.4,0,0,1,6.8-2.2,53.3,53.3,0,0,1,9.3-.7,73.9,73.9,0,0,1,12.9.9,15.3,15.3,0,0,1,8.1,3.8,11.4,11.4,0,0,1,3.6,5.6,19.7,19.7,0,0,1,1.4,6.9V67.3a24.3,24.3,0,0,0,.4,5.2,20.6,20.6,0,0,0,1.8,4.7H790.7a15.2,15.2,0,0,1-1.3-2.7,22.1,22.1,0,0,1-.6-3,21.9,21.9,0,0,1-7,4.8,29.2,29.2,0,0,1-11,2c-5.6,0-9.8-1.3-12.7-3.9a12.4,12.4,0,0,1-4.4-9.5,12.5,12.5,0,0,1,3.2-8.8c2.1-2.3,5.9-4,11.5-5.1s11-2.3,13-2.8,4.1-1.3,6.4-2.1c0-2.2-.5-3.8-1.4-4.7s-2.5-1.3-4.8-1.3a13,13,0,0,0-6.6,1.4A8.1,8.1,0,0,0,772.3,45.7Zm15.5,9.4-7.7,2.3c-3.7,1-6,1.9-6.9,2.9a4.3,4.3,0,0,0-1.5,3.3,4.3,4.3,0,0,0,1.5,3.4,6,6,0,0,0,4.3,1.3,10.5,10.5,0,0,0,5.5-1.4,9,9,0,0,0,3.7-3.5,12.2,12.2,0,0,0,1.1-5.5Z" transform="translate(-148.2 -12.8)"/><path class="a0a6adf9-0cec-4f13-b0e9-51bd6fdb849a" d="M816.6,12.8h17.9V77.2H816.6Z" transform="translate(-148.2 -12.8)"/><path class="a0a6adf9-0cec-4f13-b0e9-51bd6fdb849a" d="M846.1,30.5h16.8v7.7c1.6-3.3,3.2-5.6,5-6.8a10,10,0,0,1,6.3-1.9,18.7,18.7,0,0,1,8.7,2.5l-5.6,12.7a13.6,13.6,0,0,0-5-1.3,6,6,0,0,0-5.4,2.9c-1.9,2.7-2.8,7.8-2.8,15.3V77.2h-18Z" transform="translate(-148.2 -12.8)"/><path class="a0a6adf9-0cec-4f13-b0e9-51bd6fdb849a" d="M886.6,12.8h17.8V25H886.6Zm0,17.7h17.8V77.2H886.6Z" transform="translate(-148.2 -12.8)"/><path class="a0a6adf9-0cec-4f13-b0e9-51bd6fdb849a" d="M948.3,30.5h16.8V76.7a20.5,20.5,0,0,1-1.8,8.4,17.9,17.9,0,0,1-5,6.4,21.4,21.4,0,0,1-7.9,3.6,50.8,50.8,0,0,1-10.9,1.1c-9.4,0-15.8-1.4-19.3-4.3a13.7,13.7,0,0,1-5.3-11.3c0-.5.1-1.3.1-2.3l17.4,2a5.4,5.4,0,0,0,2,3.3,8.7,8.7,0,0,0,5,1.4c2.6,0,4.5-.7,5.8-2.1s1.9-3.8,1.9-7.2V68.6a17.7,17.7,0,0,1-5.3,4.5,18.3,18.3,0,0,1-8.9,2.2c-6.3,0-11.3-2.7-15.1-8.1s-4.1-9-4.1-15.4,1.7-12.8,5.2-16.6a18.2,18.2,0,0,1,13.8-5.7,19.5,19.5,0,0,1,9,1.8,19.8,19.8,0,0,1,6.6,6.1ZM931.5,53.2c0,3.3.7,5.8,2.2,7.5a7.1,7.1,0,0,0,5.6,2.4,7,7,0,0,0,5.6-2.5c1.5-1.7,2.3-4.2,2.3-7.6s-.8-6-2.4-7.8a7.4,7.4,0,0,0-5.8-2.7,6.6,6.6,0,0,0-5.4,2.4C932.2,46.6,931.5,49.3,931.5,53.2Z" transform="translate(-148.2 -12.8)"/><path class="a0a6adf9-0cec-4f13-b0e9-51bd6fdb849a" d="M975.9,12.8h17.9V36.5a24.2,24.2,0,0,1,7.2-5.4,20.6,20.6,0,0,1,8.6-1.6c4.8,0,8.6,1.5,11.4,4.4s4.2,7.5,4.2,13.7V77.2h-17.9V51.6c0-3-.6-5-1.7-6.3a5.7,5.7,0,0,0-4.5-1.8,6.3,6.3,0,0,0-5.3,2.5c-1.3,1.6-2,4.6-2,8.8V77.2H975.9Z" transform="translate(-148.2 -12.8)"/><path class="a0a6adf9-0cec-4f13-b0e9-51bd6fdb849a" d="M1057.5,12.8V30.5h9.8V43.6h-9.8V60.2q0,3,.6,3.9a3.2,3.2,0,0,0,3,1.5,21.6,21.6,0,0,0,5.6-1.1l1.3,12.3a56.6,56.6,0,0,1-12.4,1.5c-4.4,0-7.7-.6-9.8-1.7a10.8,10.8,0,0,1-4.7-5.2c-1-2.4-1.5-6.1-1.5-11.3V43.6H1033V30.5h6.6V22Z" transform="translate(-148.2 -12.8)"/></svg>