<svg id="ba6cafe4-2dc0-4578-b6f1-c9c22037bbcf" data-name="Layer 1" xmlns="http://www.w3.org/2000/svg" viewBox="0 0 75 30"><defs><style>.a2d3ebde-8697-4af5-956a-0450476ac618{fill:#231f20;}</style></defs><title>feeling</title><path class="a2d3ebde-8697-4af5-956a-0450476ac618" d="M9.9,2H10q.3,0,.3.6h0c0,.2,0,.3-.1.3h.1a2.8,2.8,0,0,0-.1.9h0V6.1c0,.1-.1.3-.1.4h0v.8h0v.6h0V9.9c.1,1.1.2,1.7.2,1.8l-.3.2H7.3c0-.1-.1-.1-.3-.1H6.4a.1.1,0,0,0-.1-.1c-.1,0-.1,0-.1.1h-2v.8h0c0,.4,0,.6-.1.6h.1a.1.1,0,0,1-.1.1h0v1.2H7.2c0,.7-.1,1.3-.1,1.8v.2c-.1,0-.1.1-.1.2a3.8,3.8,0,0,0,.1,1c-.1.2-.2.4-.3.4H4.8c-.3,0-.4.1-.4.2h0v1.1h0v.7c0,.5,0,.8.1.9H4.4v.6h0V24h0v.6h.1v.2h0v.3H4.5a8.6,8.6,0,0,1,.2,1.9h.1v.7a1.1,1.1,0,0,1,.1.5l-1-.2H.2v-.9h0a2.8,2.8,0,0,0,.1-.6h0v-.7h0v-1h0V25h0V22.7h0v-.4c0-.6,0-.8.1-.8a1.5,1.5,0,0,1-.1-.7h0v-.3h0c0-.4.1-.7.1-1.1h0V17a8.2,8.2,0,0,0,.1-2H.7a.4.4,0,0,1-.1-.3h0V11.2h0V11H.5a1.1,1.1,0,0,0,.1-.5V9.6a1,1,0,0,0-.1-.4V9H.5a3.8,3.8,0,0,0,.1-1V7.3h0c0-.5,0-.7-.1-.7h0V4.5h0V4.1h0V3.9h0v-1a1.8,1.8,0,0,1-.1-.5h0l.3-.2H9.9Zm.7,21Z"/><path class="a2d3ebde-8697-4af5-956a-0450476ac618" d="M21.3,1.8h.2c0,.2,0,.3-.1.4h0a4.3,4.3,0,0,0-.2,1.2V4h0c0,.3-.1.6-.1,1.1h0a3.1,3.1,0,0,0-.1.9h0v.5h0v.2a.8.8,0,0,1,.1.3h0v.2h-.1a1.1,1.1,0,0,1,.1.5,2.8,2.8,0,0,1-.1,1v.8h-5c-.4,0-.6.1-.6.2h0a1.7,1.7,0,0,1-.1.8h.1a3.7,3.7,0,0,0-.1,1.1h0v1.2c.1.2.1.3.3.3h0l1.1.2h2.5l-.2.7a3.5,3.5,0,0,0-.1.7,1.5,1.5,0,0,0-.1.6v2H17c-.6,0-.9.1-.9.2a2,2,0,0,0-.1.7h0V19h0v.2h0a.9.9,0,0,0-.1.5v.2H16c-.1,0-.1.2-.1.6v.6h0v.6h-.1c.1.1.1.2.2.2h.8l1.3-.2h2.1a8.3,8.3,0,0,1-.2,1.3h0c0,.2-.1.4-.1.8h0v.2a1.3,1.3,0,0,0,.1.6.4.4,0,0,0-.1.3,6.8,6.8,0,0,1,.1,1.2h0v.2l.2.9h-.1c0,.2.1.5.1.7h0a3.5,3.5,0,0,1,.1.6h-.5L19,29h-.1c0-.1-.3-.1-1-.1H11.1c0-.2.1-.4.1-.6v-.2h0v-.2a12.3,12.3,0,0,0,.2-1.3v-.2h0a3.2,3.2,0,0,1,.1-.7h-.1c.1-.1.1-.3.1-.6h0a1.5,1.5,0,0,1,.1-.6h0v-.6h0a6.2,6.2,0,0,0,.1-1.3h0v-.7h0v-.4h0V18.2h.1c-.1-.1-.1-.4-.1-.8h0v-.7h0a8.9,8.9,0,0,1,.1-1.3V15a2.6,2.6,0,0,0,.1-.7v-.2h0c0-.2-.1-.7-.1-1.5v-.2a.3.3,0,0,1-.1-.2h0v-.7a1.8,1.8,0,0,1,.1-.6,4.5,4.5,0,0,1-.1-1.1h0c0-.1,0-.2.1-.2h-.1V8.8h0a.4.4,0,0,1,.1-.3c-.1,0-.1,0-.1-.1h.1V7.4h0c0-.3-.1-.5-.1-.7h0V6.1h.1V5.2c0-.6,0-.8-.1-.8V4h0a.3.3,0,0,0-.1-.2h0V3.1h0a.6.6,0,0,1,.1-.4h4.5l1-.2h.1L18.4,2h2.9Z"/><path class="a2d3ebde-8697-4af5-956a-0450476ac618" d="M32.2,1.8h.2c0,.2,0,.3-.1.4h0a4.3,4.3,0,0,0-.2,1.2V4h0c0,.3-.1.6-.1,1.1h0a3.1,3.1,0,0,0-.1.9h0v.5h0v.2a.8.8,0,0,1,.1.3h0v.2h-.1a1.1,1.1,0,0,1,.1.5,2.8,2.8,0,0,1-.1,1v.8h-5c-.4,0-.6.1-.6.2h0a1.7,1.7,0,0,1-.1.8h.1a3.7,3.7,0,0,0-.1,1.1h0v1.2c.1.2.1.3.3.3h0l1.1.2H30l-.2.7a3.5,3.5,0,0,0-.1.7c-.1,0-.1.2-.1.6v2H27.9c-.6,0-.9.1-.9.2a2,2,0,0,0-.1.7h0V19h0v.2h0a.9.9,0,0,0-.1.5v.2h.1c-.1,0-.1.2-.1.6v.6h0v.6h-.1c.1.1.1.2.2.2h.8l1.3-.2h2.1a8.3,8.3,0,0,1-.2,1.3h0c0,.2-.1.4-.1.8h0v.2a1.3,1.3,0,0,0,.1.6.4.4,0,0,0-.1.3,6.8,6.8,0,0,1,.1,1.2h0v.2l.2.9h-.1c0,.2.1.5.1.7h0a3.5,3.5,0,0,1,.1.6h-.5l-.9-.2h-.1c0-.1-.3-.1-1-.1H22c0-.2.1-.4.1-.6v-.2h0v-.2a12.3,12.3,0,0,0,.2-1.3v-.2h0a3.2,3.2,0,0,1,.1-.7h-.1c.1-.1.1-.3.1-.6h0a1.5,1.5,0,0,1,.1-.6h0v-.6h0a6.2,6.2,0,0,0,.1-1.3h0v-.7h0v-.4h0V18.2h0v-.8h0v-.7h0a8.9,8.9,0,0,1,.1-1.3V15a2.6,2.6,0,0,0,.1-.7.3.3,0,0,0-.1-.2h.1c0-.2-.1-.7-.1-1.5v-.4h0V9.6h0V9.3h0V8.8h0V8.3h0V7.4h0c0-.3-.1-.5-.1-.7h0V6.1h.1V5.2c0-.6,0-.8-.1-.8V4h0a.3.3,0,0,0-.1-.2h0V3.1h0c0-.3,0-.4.1-.4h4.5l1-.2h.1L29.3,2h2.9Z"/><path class="a2d3ebde-8697-4af5-956a-0450476ac618" d="M37.5,1.1h.2c-.2,1.9-.4,3.6-.5,4.9h0v.4a2,2,0,0,1-.1.8v.6h0v.2h-.1V9h0v.3h0V10a1.8,1.8,0,0,1-.1.5v.3h0v.2h.1c0,.1,0,.2-.1.2h.1a8.7,8.7,0,0,0-.1,1.1c0,.2,0,.3.1.4h-.1v.4a.1.1,0,0,1-.1.1v1h0v1.4h0v1.1h.1v1.5h0v.2h0v.7a2,2,0,0,0,.1.7c-.1.1-.1.1-.1.2a2.5,2.5,0,0,1,.1.8h0v.2h0v1a16.4,16.4,0,0,0,3.5.2h2.1l1.6-.3h1.3c0,.2-.1.5-.2,1.1v1.8c0,.1,0,.1-.1.2v2.2a.4.4,0,0,0,.1.3H37.3c-.1,0-.1,0-.1-.1H32.9c.1-.8.1-1.4.2-2v-.7h0v-.2a5.9,5.9,0,0,1,.1-1.1h0v-.4c0-.3,0-.5.1-.6v-.2h0a5.1,5.1,0,0,0,.1-1h0v-.2a2.2,2.2,0,0,1,.1-.9h0V20.3a21.1,21.1,0,0,1,.2-2.5h0V16.4h0V16h0v-.5h-.1v-.5a.4.4,0,0,0-.1-.3h.1a1.9,1.9,0,0,1-.1-.8v-.3h0v-.6h0V11.3h0c0-.2.1-.4.1-.6h-.1a2.3,2.3,0,0,0,.1-.7h-.1a.6.6,0,0,0,.1-.4h0c0-.6-.1-1.1-.1-1.4V7.3h0V7.1h-.1V6.9a13.9,13.9,0,0,1-.1-1.7h0V4.6h0V3.9h0V3.1h0q-.1-.7-.3-1.8h2.8c.1,0,.1,0,.1.1h1.3Z"/><path class="a2d3ebde-8697-4af5-956a-0450476ac618" d="M51.3,10h.2c-.1.1-.1.3-.2.5v.2a1.1,1.1,0,0,1-.1.6,4.4,4.4,0,0,1-.1.9,5,5,0,0,0-.1,1.1h0c-.1,0-.2.5-.2,1.4h0a2.8,2.8,0,0,0-.1.6h0c0,.3,0,.4-.1.4h.1v.2h.1v.2h0a6.3,6.3,0,0,0-.1,1.1v.2a11.3,11.3,0,0,1-.1,1.4h.1a.7.7,0,0,0-.1.5v.4h0v.2h0v.2h0v.2h0v.6h0v.7h0v1.4c0,.4.1.7.1.9h0a10.9,10.9,0,0,1,.1,1.3h0a13.7,13.7,0,0,0,.4,1.7c0,.1.1.4.2.8h-.4a.1.1,0,0,0-.1-.1H47.4l-.5.2h-.3c.1-.6.2-1.4.3-2.3h0a3.8,3.8,0,0,0,.1-1.2h0v-.5c0-.5,0-.8.1-.8H47V22.7h.1c0-.1,0-.1-.1-.1h.1a3.8,3.8,0,0,1-.1-1v-.3h0V20h0v-.2h0v-.3h0c0-.2-.1-.4-.1-.7v-.3H47V18h0V16.6a4.1,4.1,0,0,1-.1-.9.4.4,0,0,1-.1-.3h0v-.6h0l-.3-2.9c-.1,0-.1-.3-.2-.9h0v-.4h3.7c.4,0,.6,0,.6-.1h.7ZM49.1,1.9l1.1.2A1.8,1.8,0,0,1,51,3.3,7.9,7.9,0,0,1,51.2,5v.8h0v.2h0a4.1,4.1,0,0,1-.5,1.8.6.6,0,0,1-.6.5l-.9.3h-.4a2.6,2.6,0,0,1-2.1-1,1.2,1.2,0,0,1-.2-.7h-.1V6.7h0V5.3a9.3,9.3,0,0,1,.3-2.1,1.7,1.7,0,0,1,1-1A2.8,2.8,0,0,1,49.1,1.9Z"/><path class="a2d3ebde-8697-4af5-956a-0450476ac618" d="M62.5,1.3l.2.2a31.2,31.2,0,0,0-.5,3.2.6.6,0,0,0-.1.4h0v.3h.1a.3.3,0,0,0-.1.2v.2h0v.3h0c-.1.1-.1.5-.1,1.3h0v.2h0c0,.3,0,.4.1.4h0c-.1.1-.1.2-.2.4h0v.2h-.1v.4h0v.2h0c0,.6,0,.9-.1.9h0v.3h0a19.4,19.4,0,0,0-.2,2.4h0v.8h0V15c0,.1,0,.2.1.2s-.1.3-.1.7,0,.6.1.6h-.1v.9a.3.3,0,0,0,.1.2v.4h0v.4c0,.2-.1.4-.1.6v2h0c.2,1.7.3,2.5.3,2.7h0v.2h0v.7a9.2,9.2,0,0,1,.2,1.7V27a1.7,1.7,0,0,1,.1.7H58.5l-.2-.3h.1a6.7,6.7,0,0,1-.3-1.7h0a.7.7,0,0,0-.1-.5h0a36,36,0,0,0-.9-4.2c0-.1-.1-.3-.2-.7h0l-.2-.3a4.5,4.5,0,0,0-.1,1h0a.4.4,0,0,0,.1.3v.2h0a4.3,4.3,0,0,1,.1.5h0v.9c0,.2.1.3.1.4s-.1.1-.1.2a3.5,3.5,0,0,1,.1.7h0c0,.2-.1.4-.1.7v.3h0v.3h0c0,.2,0,.3-.1.3v.7c0,.1.1.2.1.4h-.1v.5h0a1.3,1.3,0,0,0,.1.6h-.1l.2.5h-.1c0,.1.1.2.1.3V30h-.3l-1.1-.3a.1.1,0,0,0-.1.1H52.7l-.6.2h-.2c.1,0,.1,0,.1-.2h0c.1-.6.2-1.1.2-1.2h0a.4.4,0,0,1,.1-.3h0v-.5h0v-.6h0v-.4a1.3,1.3,0,0,1,.1-.6c-.1-.1-.1-.2-.1-.4a.1.1,0,0,1,.1-.1h-.1v-.6c0-.2.1-.2.1-.2V22.8h0v-.2h0v-.4h0v-.4h0v-1h0V20h0a2.6,2.6,0,0,0-.1-.7h0V17.2h0V16.1h0v-.4h0v-.2h0V13.6h0v-.3h0v-.3h0v-.6h0V10.7a1.7,1.7,0,0,1-.1-.7h0c0-.1,0-.1.1-.1a1.8,1.8,0,0,1-.1-.5h0V7.7h0a1,1,0,0,0-.1-.4h0V6.4a2.8,2.8,0,0,1,.1-.8h2l1.7-.3a1.4,1.4,0,0,1,.2.6h0l.3,2.3c.1.6.3,1.4.5,2.4a9.3,9.3,0,0,0,.6,2.5c.1,0,.2.5.4,1.5h0A2.8,2.8,0,0,0,58,14h0a20.3,20.3,0,0,0,.1-2.2c.1,0,.1-.1.1-.2v-.3a.6.6,0,0,0,.1-.4h0v-.4a.4.4,0,0,0-.1-.3c.1-.1.1-.3.1-.6V8.7h0V8.3h-.1V7.5a.4.4,0,0,0-.1-.3V6.7h0V6.1h0c0-.2-.1-.4-.1-.6h.1V5.1c0-.1-.1-.2-.1-.3V4.6a1.2,1.2,0,0,1-.1-.5,1.1,1.1,0,0,1,.1-.5,2.8,2.8,0,0,1-.1-.9h0V1.9h3.7Z"/><path class="a2d3ebde-8697-4af5-956a-0450476ac618" d="M69.6.4h1.5c0,.1.3.2.7.2h1l1.5.3h0A23.6,23.6,0,0,0,74,4.4h0v.8a.1.1,0,0,1-.1.1v.7h0v.2a1.5,1.5,0,0,0,.1.6H74v.7H71.4l-1.2.2a5.4,5.4,0,0,0-1.9.7l-.5.5c-.1,0-.2.3-.4,1v.3h0v.3h-.1v.4h0c0,.1,0,.2-.1.2h0v.8h0a.1.1,0,0,0-.1.1h.1v.5h.1v.5h0v.3a1.5,1.5,0,0,1-.1.6h0v.2H67v.5h0v.3c0,.3,0,.4-.1.5h0V18h0v1.2h0V20h0a4.4,4.4,0,0,1,.1.9h0a4.9,4.9,0,0,0,.3,1.3h-.1l.6,1.3a1.9,1.9,0,0,0,1.5,1.2l.6.2c.3,0,.4,0,.4-.1a.1.1,0,0,0,.1.1c.4,0,.7-.4.9-1a2.9,2.9,0,0,0,.2-.9V21.7h0l-.7-.2H69.2l-.7.2h-.2c-.1-.1-.1-.3-.1-.7v-.2h0v-1h0v-.3c0-.4,0-1.4-.1-2.9h.1c0-.1-.1-.6-.2-1.5h.1a2.8,2.8,0,0,1-.1-.6.3.3,0,0,1,.3-.3h3.8a.1.1,0,0,0,.2,0h.3a.1.1,0,0,1,.1-.1h0a.1.1,0,0,1,.1.1h1.6v.3h0v1.7h0v.2h0v.7h0v3.4h0a4.6,4.6,0,0,0,.1,1h-.1c0,.1.1.1.1.2h-.1c.1,2.1.1,3.7.2,4.8a12.2,12.2,0,0,1,.2,2.3l-4.4.4-2.3.2h-.8q-2.4-.6-2.4-.9l-.7-.8a3.5,3.5,0,0,1-.6-1.6,11.2,11.2,0,0,1-.4-2.6h0a1.8,1.8,0,0,0-.1-.6h.1c0-.2-.1-.3-.1-.4v-.2h0v-.4h.1a1.2,1.2,0,0,1-.1-.5h0a.4.4,0,0,1,.1-.3h-.1v-.5h.1v-.6h0v-.4h0v-.2h0V16.4h0v-.2h0v-.7h0v-.2h0v-.2a18.3,18.3,0,0,0,.2-2.7,7.8,7.8,0,0,0,.1-.9h0v-.6h0V9.4h0V9a7.8,7.8,0,0,1,.1-1.3,1,1,0,0,1,.1-.4h0a3.9,3.9,0,0,1,.2-1.1A11.6,11.6,0,0,1,64.4,4,5.3,5.3,0,0,1,65,2.7a2.2,2.2,0,0,1,1.1-1.4A3.2,3.2,0,0,1,67.7.7,4.4,4.4,0,0,1,69.6.4Z"/></svg>
