<svg id="e8c5199f-c14a-4f11-9dec-80d21834d156" data-name="Layer 1" xmlns="http://www.w3.org/2000/svg" viewBox="0 0 1215.5 104.8"><defs><style>.b00f67f9-834f-45b9-ba80-23aa3d3f3646{fill:#231f20;}</style></defs><title>girlyoujustdontrealize</title><path class="b00f67f9-834f-45b9-ba80-23aa3d3f3646" d="M37.9,30.5H54.6V76.7a20.6,20.6,0,0,1-1.9,8.4,16.8,16.8,0,0,1-5,6.4A20.9,20.9,0,0,1,40,95.1a51.8,51.8,0,0,1-11,1.1c-9.3,0-15.8-1.4-19.3-4.3A13.6,13.6,0,0,1,4.5,80.6a22,22,0,0,1,.1-2.3l17.3,2A5.4,5.4,0,0,0,24,83.6,8.4,8.4,0,0,0,28.9,85c2.6,0,4.5-.7,5.8-2.1s1.9-3.8,1.9-7.2V68.6a17.7,17.7,0,0,1-5.3,4.5,18.1,18.1,0,0,1-8.9,2.2c-6.2,0-11.3-2.7-15.1-8.1s-4.1-9-4.1-15.4S5,39,8.5,35.2s8.1-5.7,13.8-5.7a20,20,0,0,1,9,1.8,21.9,21.9,0,0,1,6.6,6.1ZM21,53.2c0,3.3.8,5.8,2.2,7.5a7.2,7.2,0,0,0,5.7,2.4,7.2,7.2,0,0,0,5.6-2.5c1.5-1.7,2.2-4.2,2.2-7.6s-.8-6-2.3-7.8a7.6,7.6,0,0,0-5.8-2.7,6.9,6.9,0,0,0-5.5,2.4C21.7,46.6,21,49.3,21,53.2Z"/><path class="b00f67f9-834f-45b9-ba80-23aa3d3f3646" d="M66.1,12.8H84V25H66.1Zm0,17.7H84V77.2H66.1Z"/><path class="b00f67f9-834f-45b9-ba80-23aa3d3f3646" d="M95.6,30.5h16.7v7.7c1.6-3.3,3.3-5.6,5-6.8a10.1,10.1,0,0,1,6.4-1.9,18.1,18.1,0,0,1,8.6,2.5l-5.5,12.7a13.6,13.6,0,0,0-5-1.3,6.1,6.1,0,0,0-5.5,2.9q-2.7,4.1-2.7,15.3V77.2h-18Z"/><path class="b00f67f9-834f-45b9-ba80-23aa3d3f3646" d="M139,12.8h17.9V77.2H139Z"/><path class="b00f67f9-834f-45b9-ba80-23aa3d3f3646" d="M193.2,30.5h18.9l9.6,31.1,8.9-31.1h17.6L229.7,80.4c-2.1,5.7-4.2,9.5-6.4,11.5s-7.9,4.3-14.2,4.3a106.3,106.3,0,0,1-12-1.1l-1.4-12.5a29.3,29.3,0,0,0,8.6,1.3,8.4,8.4,0,0,0,5.2-1.5,11.1,11.1,0,0,0,3.3-5.2Z"/><path class="b00f67f9-834f-45b9-ba80-23aa3d3f3646" d="M249.6,54c0-7.1,2.4-13,7.2-17.6s11.3-6.9,19.4-6.9,16.4,2.7,21.2,8.1a23.5,23.5,0,0,1,5.8,16.2c0,7.1-2.4,13-7.2,17.6s-11.3,6.9-19.7,6.9-13.6-1.9-18.2-5.7A23,23,0,0,1,249.6,54Zm17.9,0c0,4.1.8,7.2,2.5,9.2a8,8,0,0,0,6.4,3,7.8,7.8,0,0,0,6.3-3c1.7-1.9,2.5-5.1,2.5-9.4s-.8-7.1-2.5-9a7.8,7.8,0,0,0-6.2-3,8.2,8.2,0,0,0-6.5,3C268.3,46.8,267.5,49.9,267.5,54Z"/><path class="b00f67f9-834f-45b9-ba80-23aa3d3f3646" d="M361,77.2H344.3V69.7a23.8,23.8,0,0,1-7.6,6.6,20,20,0,0,1-9.3,2c-4.9,0-8.8-1.5-11.6-4.4s-4.2-7.5-4.2-13.6V30.5h18V56.2c0,2.9.5,5,1.6,6.3a5.9,5.9,0,0,0,4.6,1.8,6.3,6.3,0,0,0,5.2-2.5c1.4-1.6,2.1-4.5,2.1-8.8V30.5H361Z"/><path class="b00f67f9-834f-45b9-ba80-23aa3d3f3646" d="M402.5,30.5h18V75.8c0,5.8-.4,9.9-1.3,12.3a11.3,11.3,0,0,1-4.6,5.8c-2.3,1.5-5.5,2.3-9.7,2.3A72.3,72.3,0,0,1,392,94.6l2.7-13a19.5,19.5,0,0,0,3.2.5,4.3,4.3,0,0,0,3.5-1.6c.7-1,1.1-3.1,1.1-6.2Zm0-17.7h18V25.1h-18Z"/><path class="b00f67f9-834f-45b9-ba80-23aa3d3f3646" d="M481,77.2H464.3V69.7a23.8,23.8,0,0,1-7.6,6.6,20,20,0,0,1-9.3,2c-4.9,0-8.8-1.5-11.6-4.4s-4.2-7.5-4.2-13.6V30.5h18V56.2c0,2.9.5,5,1.6,6.3a5.9,5.9,0,0,0,4.6,1.8,6.6,6.6,0,0,0,5.3-2.5c1.3-1.6,2-4.5,2-8.8V30.5H481Z"/><path class="b00f67f9-834f-45b9-ba80-23aa3d3f3646" d="M488.7,64.3l17.7-1.7a7.9,7.9,0,0,0,8.4,5.9,8.7,8.7,0,0,0,5.6-1.6,3.3,3.3,0,0,0-.5-5.8c-1-.5-3.6-1.1-7.7-1.8a89.3,89.3,0,0,1-13-3,14.6,14.6,0,0,1-6.1-4.7,12.5,12.5,0,0,1-2.5-7.5,12.3,12.3,0,0,1,2.7-8,16.5,16.5,0,0,1,7.4-5c3.1-1.1,7.4-1.6,12.6-1.6s9.7.4,12.4,1.3a15.7,15.7,0,0,1,6.6,3.9,20.6,20.6,0,0,1,4.4,7.3l-17,1.6a5.9,5.9,0,0,0-2.2-3.3,9.3,9.3,0,0,0-5.1-1.4A7.5,7.5,0,0,0,508,40a3.3,3.3,0,0,0-1.4,2.6,2.8,2.8,0,0,0,1.8,2.6c1.2.6,3.7,1.1,7.6,1.6,6,.7,10.4,1.6,13.3,2.8a15.2,15.2,0,0,1,6.7,5.1,13.2,13.2,0,0,1,2.3,7.4,13.6,13.6,0,0,1-2.5,7.8,15.8,15.8,0,0,1-7.6,6.1c-3.5,1.5-8.3,2.3-14.3,2.3-8.6,0-14.6-1.2-18.3-3.7A16.3,16.3,0,0,1,488.7,64.3Z"/><path class="b00f67f9-834f-45b9-ba80-23aa3d3f3646" d="M568.4,12.8V30.5h9.8V43.6h-9.8V60.2q0,3,.6,3.9a3.1,3.1,0,0,0,3,1.5,21.6,21.6,0,0,0,5.6-1.1l1.3,12.3a56.6,56.6,0,0,1-12.4,1.5c-4.5,0-7.7-.6-9.8-1.7a10.4,10.4,0,0,1-4.7-5.2c-1-2.4-1.5-6.1-1.5-11.3V43.6h-6.6V30.5h6.6V22Z"/><path class="b00f67f9-834f-45b9-ba80-23aa3d3f3646" d="M665.9,12.8V77.2H649.2V70.3a24.6,24.6,0,0,1-6.5,6,18.5,18.5,0,0,1-8.6,2c-6.3,0-11.2-2.4-14.5-7.3s-5.1-10.7-5.1-17.6,1.9-13.7,5.6-17.8a18.1,18.1,0,0,1,14.1-6.1,20.6,20.6,0,0,1,7.6,1.4,15.6,15.6,0,0,1,6,4.2V12.8ZM648,53.8c0-3.7-.8-6.4-2.4-8.2a7.3,7.3,0,0,0-5.8-2.7,6.6,6.6,0,0,0-5.3,2.5q-2.1,2.7-2.1,8.7c0,3.9.7,6.6,2.2,8.4a6.5,6.5,0,0,0,5.4,2.7,7.1,7.1,0,0,0,5.7-2.7C647.2,60.7,648,57.8,648,53.8Z"/><path class="b00f67f9-834f-45b9-ba80-23aa3d3f3646" d="M674.6,54c0-7.1,2.4-13,7.2-17.6s11.3-6.9,19.5-6.9,16.4,2.7,21.2,8.1a23.9,23.9,0,0,1,5.7,16.2,23.7,23.7,0,0,1-7.1,17.6q-7.2,6.9-19.8,6.9c-7.5,0-13.5-1.9-18.2-5.7A23,23,0,0,1,674.6,54Zm17.9,0c0,4.1.9,7.2,2.6,9.2a7.8,7.8,0,0,0,6.3,3,8,8,0,0,0,6.4-3c1.6-1.9,2.4-5.1,2.4-9.4s-.8-7.1-2.5-9a7.6,7.6,0,0,0-6.2-3,8,8,0,0,0-6.4,3C693.4,46.8,692.5,49.9,692.5,54Z"/><path class="b00f67f9-834f-45b9-ba80-23aa3d3f3646" d="M736.8,30.5h16.7v7.7a23.9,23.9,0,0,1,7.5-6.7,20.7,20.7,0,0,1,9.4-2c4.9,0,8.8,1.5,11.6,4.4s4.2,7.5,4.2,13.7V77.2h-18V51.6c0-3-.5-5-1.6-6.3a5.9,5.9,0,0,0-4.6-1.8,6.4,6.4,0,0,0-5.3,2.5c-1.3,1.6-2,4.6-2,8.8V77.2H736.8Z"/><path class="b00f67f9-834f-45b9-ba80-23aa3d3f3646" d="M793,11.7h19.1V26.4c0,5.4-1.1,9.7-3.4,12.9s-6.1,5.9-11.5,8.3L793,39.7c3.4-1.5,5.7-3.1,7-4.7a9.1,9.1,0,0,0,2.1-5.5H793Z"/><path class="b00f67f9-834f-45b9-ba80-23aa3d3f3646" d="M841.9,12.8V30.5h9.8V43.6h-9.8V60.2q0,3,.6,3.9a3.3,3.3,0,0,0,3.1,1.5,21.8,21.8,0,0,0,5.5-1.1l1.3,12.3A55.9,55.9,0,0,1,840,78.3c-4.4,0-7.7-.6-9.8-1.7a10.8,10.8,0,0,1-4.7-5.2c-1-2.4-1.5-6.1-1.5-11.3V43.6h-6.6V30.5H824V22Z"/><path class="b00f67f9-834f-45b9-ba80-23aa3d3f3646" d="M890.5,30.5h16.7v7.7c1.6-3.3,3.3-5.6,5-6.8a10,10,0,0,1,6.3-1.9,18.1,18.1,0,0,1,8.7,2.5l-5.5,12.7a13.6,13.6,0,0,0-5-1.3,6.1,6.1,0,0,0-5.5,2.9c-1.8,2.7-2.8,7.8-2.8,15.3V77.2H890.5Z"/><path class="b00f67f9-834f-45b9-ba80-23aa3d3f3646" d="M983.5,58.3H947.6c.4,2.9,1.1,5,2.4,6.4a8.1,8.1,0,0,0,6.7,3.1,10.6,10.6,0,0,0,5-1.3,14.2,14.2,0,0,0,3.2-3l17.6,1.6c-2.7,4.7-6,8.1-9.8,10.1s-9.2,3.1-16.4,3.1-11-.9-14.6-2.6a23.2,23.2,0,0,1-8.8-8.3A25.5,25.5,0,0,1,929.4,54c0-7.3,2.4-13.2,7.1-17.7s11.1-6.8,19.3-6.8,12,1,15.8,3a21,21,0,0,1,8.9,8.8c2,3.9,3,8.8,3,15Zm-18.2-8.5c-.3-3.5-1.3-6-2.8-7.5a8,8,0,0,0-5.9-2.2,8.1,8.1,0,0,0-6.9,3.4,13.3,13.3,0,0,0-2,6.3Z"/><path class="b00f67f9-834f-45b9-ba80-23aa3d3f3646" d="M1008,45.7l-17.1-1.8a20.6,20.6,0,0,1,2.8-7.1,14.7,14.7,0,0,1,5.3-4.4,19.5,19.5,0,0,1,6.7-2.2,54.9,54.9,0,0,1,9.3-.7,75.2,75.2,0,0,1,13,.9,16.1,16.1,0,0,1,8.1,3.8,12.9,12.9,0,0,1,3.6,5.6,19.5,19.5,0,0,1,1.3,6.9V67.3a33.3,33.3,0,0,0,.4,5.2,21.8,21.8,0,0,0,1.9,4.7h-16.8a15.2,15.2,0,0,1-1.3-2.7,19.4,19.4,0,0,1-.7-3,20.6,20.6,0,0,1-6.9,4.8,29.3,29.3,0,0,1-11.1,2c-5.5,0-9.8-1.3-12.7-3.9a12.6,12.6,0,0,1-4.3-9.5,12.9,12.9,0,0,1,3.1-8.8c2.1-2.3,6-4,11.5-5.1s11.1-2.3,13.1-2.8a66.4,66.4,0,0,0,6.3-2.1c0-2.2-.4-3.8-1.3-4.7s-2.5-1.3-4.8-1.3a12.7,12.7,0,0,0-6.6,1.4A7.6,7.6,0,0,0,1008,45.7Zm15.5,9.4c-2.4.8-5,1.6-7.7,2.3s-5.9,1.9-6.9,2.9a4.3,4.3,0,0,0-1.5,3.3,4.3,4.3,0,0,0,1.5,3.4,6.1,6.1,0,0,0,4.3,1.3,10.8,10.8,0,0,0,5.6-1.4,10.5,10.5,0,0,0,3.7-3.5,12.3,12.3,0,0,0,1-5.5Z"/><path class="b00f67f9-834f-45b9-ba80-23aa3d3f3646" d="M1052.4,12.8h17.9V77.2h-17.9Z"/><path class="b00f67f9-834f-45b9-ba80-23aa3d3f3646" d="M1082.4,12.8h17.9V25h-17.9Zm0,17.7h17.9V77.2h-17.9Z"/><path class="b00f67f9-834f-45b9-ba80-23aa3d3f3646" d="M1109.7,30.5h43.2V41l-23.5,24h25V77.2h-46.5V65.6l22.4-22.8h-20.6Z"/><path class="b00f67f9-834f-45b9-ba80-23aa3d3f3646" d="M1212.7,58.3h-35.9a11.5,11.5,0,0,0,2.3,6.4,8.4,8.4,0,0,0,6.8,3.1,10.9,10.9,0,0,0,5-1.3,12.2,12.2,0,0,0,3.1-3l17.7,1.6c-2.7,4.7-6,8.1-9.8,10.1s-9.3,3.1-16.4,3.1-11-.9-14.6-2.6a22.5,22.5,0,0,1-8.8-8.3,25.5,25.5,0,0,1-3.5-13.4c0-7.3,2.4-13.2,7-17.7s11.2-6.8,19.4-6.8,11.9,1,15.8,3a20.2,20.2,0,0,1,8.8,8.8c2.1,3.9,3.1,8.8,3.1,15Zm-18.2-8.5c-.4-3.5-1.3-6-2.8-7.5a8.8,8.8,0,0,0-12.8,1.2,11.4,11.4,0,0,0-2,6.3Z"/></svg>