<svg id="a41db91c-fef3-4306-9abf-b02cc76d76b8" data-name="Layer 1" xmlns="http://www.w3.org/2000/svg" viewBox="0 0 68.6 29.2"><defs><style>.e4ce4ec1-606d-45a0-9ce1-c49cc897ce72{fill:#231f20;}</style></defs><title>high</title><path class="e4ce4ec1-606d-45a0-9ce1-c49cc897ce72" d="M7.2,17.7V29.5L.6,29.2V.6H7.1V11h5.1V.7L19.1.5l-.2,28.9H12.3V17.5Z" transform="translate(-0.5 -0.5)"/><path class="e4ce4ec1-606d-45a0-9ce1-c49cc897ce72" d="M21,.7,27.7.5l-.3,29-6.5-.2Z" transform="translate(-0.5 -0.5)"/><path class="e4ce4ec1-606d-45a0-9ce1-c49cc897ce72" d="M33.5,28.9l-4.4-6.1V5.4L34,.5,48.4.8V7.7L35.9,7.2l-.4,14.5,6.5.2V17.7H38.4V11.1l10.2-.4V29.6Z" transform="translate(-0.5 -0.5)"/><path class="e4ce4ec1-606d-45a0-9ce1-c49cc897ce72" d="M57.3,17.7V29.5l-6.7-.3V.6h6.6V11h5.2V.7L69.1.5l-.2,28.9H62.4V17.5Z" transform="translate(-0.5 -0.5)"/></svg>