<svg id="efe31490-39ca-4d1c-aba3-035f795af3a7" data-name="Layer 1" xmlns="http://www.w3.org/2000/svg" viewBox="0 0 120 38.8"><defs><style>.baf99d37-0bf5-47dc-8000-06288c282913{fill:#231f20;}</style></defs><title>hooked</title><path class="baf99d37-0bf5-47dc-8000-06288c282913" d="M8.6,23.2V38.5l-6.6-.3V1.1L8.5.9V14.5h5.1V1.1L20.2.9l-.3,37.5-6.4-.2V23Z"/><path class="baf99d37-0bf5-47dc-8000-06288c282913" d="M26.7,38.3,22,31.9V9.4l4.3-7.9,10.4-.4,4.6,6.4V30l-4.2,7.9ZM28.5,29l6.6-.4-.4-18.1-6.6.3Z"/><path class="baf99d37-0bf5-47dc-8000-06288c282913" d="M47.7,38.3,43,31.9V9.4l4.3-7.9,10.4-.4,4.7,6.4V30l-4.3,7.9ZM49.5,29l6.6-.4-.3-18.1-6.6.3Z"/><path class="baf99d37-0bf5-47dc-8000-06288c282913" d="M70.5,26.3V38.5L64,38.2V1.1L70.4.9V12.8L74.5.7l7,.3L75.4,19.5l6.1,18.4-7,.4Z"/><path class="baf99d37-0bf5-47dc-8000-06288c282913" d="M87.8,23.3v4.9l9.4.4.3,9.6-16-.7V.9l15.8.2V10L88,9.4v5.4l7.4-.4L95,23.2Z"/><path class="baf99d37-0bf5-47dc-8000-06288c282913" d="M113,.9l4.7,6.3V29.8l-4.3,7.9-14.6.6V1.2Zm-7.5,9V28.6l6.2-.2-.4-18.8Z"/></svg>