<svg id="a20f56ab-23db-482e-8030-9c6555214bcc" data-name="Layer 1" xmlns="http://www.w3.org/2000/svg" viewBox="0 0 1132 104.8"><defs><style>.e452fc18-b89a-4349-ad97-4e4005a81605{fill:#231f20;}</style></defs><title>icantstopthisfeeling</title><path class="e452fc18-b89a-4349-ad97-4e4005a81605" d="M8.6,12.8H26.5V25H8.6Zm0,17.7H26.5V77.2H8.6Z"/><path class="e452fc18-b89a-4349-ad97-4e4005a81605" d="M102.7,58.9l17,2a22.8,22.8,0,0,1-4.6,9.2,20.8,20.8,0,0,1-8.2,6c-3.3,1.5-7.5,2.2-12.7,2.2a47.3,47.3,0,0,1-12.3-1.4,20.4,20.4,0,0,1-8.5-4.5,22,22,0,0,1-5.6-7.3c-1.4-2.7-2-6.4-2-11a26.7,26.7,0,0,1,2.4-12,24.4,24.4,0,0,1,4.9-6.3,24.8,24.8,0,0,1,6.5-4.2c3.4-1.4,7.9-2.1,13.4-2.1,7.6,0,13.4,1.4,17.4,4.1a21.4,21.4,0,0,1,8.4,11.9L102,47.8a8.1,8.1,0,0,0-2.9-4.5,9.5,9.5,0,0,0-5.6-1.5,9,9,0,0,0-7.2,3.1c-1.8,2.2-2.7,5.4-2.7,9.7s.9,6.7,2.7,8.7a8.9,8.9,0,0,0,6.9,3,9.4,9.4,0,0,0,5.9-1.8A10.9,10.9,0,0,0,102.7,58.9Z"/><path class="e452fc18-b89a-4349-ad97-4e4005a81605" d="M144.3,45.7l-17.1-1.8a18.8,18.8,0,0,1,2.7-7.1,15.6,15.6,0,0,1,5.3-4.4,19.4,19.4,0,0,1,6.8-2.2,53.3,53.3,0,0,1,9.3-.7,74.7,74.7,0,0,1,12.9.9,15.3,15.3,0,0,1,8.1,3.8,11.4,11.4,0,0,1,3.6,5.6,19.7,19.7,0,0,1,1.4,6.9V67.3a24.3,24.3,0,0,0,.4,5.2,20.6,20.6,0,0,0,1.8,4.7H162.7a15.2,15.2,0,0,1-1.3-2.7,22.1,22.1,0,0,1-.6-3,21.9,21.9,0,0,1-7,4.8,29.2,29.2,0,0,1-11,2c-5.6,0-9.8-1.3-12.7-3.9a12.4,12.4,0,0,1-4.4-9.5,12.5,12.5,0,0,1,3.2-8.8c2-2.3,5.9-4,11.5-5.1s11-2.3,13-2.8,4.1-1.3,6.4-2.1c0-2.2-.5-3.8-1.4-4.7s-2.5-1.3-4.8-1.3a13,13,0,0,0-6.6,1.4A8.1,8.1,0,0,0,144.3,45.7Zm15.5,9.4-7.7,2.3c-3.7,1-6,1.9-6.9,2.9a4.3,4.3,0,0,0-1.5,3.3,4.3,4.3,0,0,0,1.5,3.4,6,6,0,0,0,4.3,1.3,10.5,10.5,0,0,0,5.5-1.4,9,9,0,0,0,3.7-3.5,12.2,12.2,0,0,0,1.1-5.5Z"/><path class="e452fc18-b89a-4349-ad97-4e4005a81605" d="M188,30.5h16.6v7.7a23.1,23.1,0,0,1,7.6-6.7,20,20,0,0,1,9.3-2c5,0,8.8,1.5,11.6,4.4s4.2,7.5,4.2,13.7V77.2H219.4V51.6c0-3-.6-5-1.7-6.3a5.8,5.8,0,0,0-4.5-1.8,6.3,6.3,0,0,0-5.3,2.5c-1.4,1.6-2,4.6-2,8.8V77.2H188Z"/><path class="e452fc18-b89a-4349-ad97-4e4005a81605" d="M244.1,11.7h19.2V26.4c0,5.4-1.2,9.7-3.4,12.9s-6.1,5.9-11.6,8.3l-4.2-7.9c3.4-1.5,5.8-3.1,7-4.7a9.9,9.9,0,0,0,2.2-5.5h-9.2Z"/><path class="e452fc18-b89a-4349-ad97-4e4005a81605" d="M293,12.8V30.5h9.9V43.6H293V60.2q0,3,.6,3.9a3.3,3.3,0,0,0,3.1,1.5,21,21,0,0,0,5.5-1.1l1.4,12.3a57.3,57.3,0,0,1-12.4,1.5c-4.5,0-7.8-.6-9.9-1.7a10.8,10.8,0,0,1-4.7-5.2c-1-2.4-1.5-6.1-1.5-11.3V43.6h-6.6V30.5h6.6V22Z"/><path class="e452fc18-b89a-4349-ad97-4e4005a81605" d="M338.3,64.3,356,62.6a7.9,7.9,0,0,0,8.4,5.9,8.7,8.7,0,0,0,5.6-1.6,3.3,3.3,0,0,0-.5-5.8c-1-.5-3.6-1.1-7.7-1.8a89.3,89.3,0,0,1-13-3,14.6,14.6,0,0,1-6.1-4.7,12.5,12.5,0,0,1-2.5-7.5,12.3,12.3,0,0,1,2.7-8,16.5,16.5,0,0,1,7.4-5c3.1-1.1,7.3-1.6,12.6-1.6s9.7.4,12.3,1.3a15.4,15.4,0,0,1,6.7,3.9,20.6,20.6,0,0,1,4.4,7.3l-17,1.6a5.9,5.9,0,0,0-2.2-3.3,9.3,9.3,0,0,0-5.1-1.4,7.3,7.3,0,0,0-4.4,1.1,3.3,3.3,0,0,0-1.4,2.6,2.8,2.8,0,0,0,1.8,2.6c1.2.6,3.7,1.1,7.6,1.6,6,.7,10.4,1.6,13.3,2.8a15.2,15.2,0,0,1,6.7,5.1,13.2,13.2,0,0,1,2.3,7.4,13.6,13.6,0,0,1-2.5,7.8,15.8,15.8,0,0,1-7.6,6.1c-3.5,1.5-8.3,2.3-14.4,2.3-8.5,0-14.5-1.2-18.2-3.7A16.3,16.3,0,0,1,338.3,64.3Z"/><path class="e452fc18-b89a-4349-ad97-4e4005a81605" d="M418,12.8V30.5h9.8V43.6H418V60.2q0,3,.6,3.9a3.1,3.1,0,0,0,3,1.5,21.6,21.6,0,0,0,5.6-1.1l1.3,12.3a56.6,56.6,0,0,1-12.4,1.5c-4.5,0-7.7-.6-9.8-1.7a10.4,10.4,0,0,1-4.7-5.2c-1-2.4-1.5-6.1-1.5-11.3V43.6h-6.6V30.5h6.6V22Z"/><path class="e452fc18-b89a-4349-ad97-4e4005a81605" d="M434.2,54c0-7.1,2.4-13,7.2-17.6s11.3-6.9,19.4-6.9,16.4,2.7,21.2,8.1a23.5,23.5,0,0,1,5.8,16.2c0,7.1-2.4,13-7.2,17.6s-11.3,6.9-19.7,6.9-13.6-1.9-18.2-5.7A23,23,0,0,1,434.2,54Zm17.9,0c0,4.1.8,7.2,2.5,9.2a8,8,0,0,0,6.4,3,7.8,7.8,0,0,0,6.3-3c1.7-1.9,2.5-5.1,2.5-9.4s-.8-7.1-2.5-9a7.8,7.8,0,0,0-6.2-3,8.2,8.2,0,0,0-6.5,3C452.9,46.8,452.1,49.9,452.1,54Z"/><path class="e452fc18-b89a-4349-ad97-4e4005a81605" d="M496.5,95V30.5h16.7v6.9a21.6,21.6,0,0,1,6.4-5.8,17.9,17.9,0,0,1,8.6-2.1c6.3,0,11.1,2.4,14.5,7.2s5.1,10.6,5.1,17.7-1.8,13.7-5.5,17.7a18.5,18.5,0,0,1-14.1,6.2,20.6,20.6,0,0,1-7.6-1.4,19.6,19.6,0,0,1-6.1-4.2V95Zm17.9-41c0,3.7.8,6.4,2.3,8.2a7.5,7.5,0,0,0,5.9,2.7,6.2,6.2,0,0,0,5.2-2.6c1.5-1.7,2.2-4.6,2.2-8.7s-.8-6.5-2.2-8.3a6.8,6.8,0,0,0-5.4-2.7,7.1,7.1,0,0,0-5.7,2.7C515.2,47.1,514.4,50,514.4,54Z"/><path class="e452fc18-b89a-4349-ad97-4e4005a81605" d="M608,12.8V30.5h9.8V43.6H608V60.2q0,3,.6,3.9a3.3,3.3,0,0,0,3.1,1.5,21.8,21.8,0,0,0,5.5-1.1l1.3,12.3a55.9,55.9,0,0,1-12.4,1.5c-4.4,0-7.7-.6-9.8-1.7a10.8,10.8,0,0,1-4.7-5.2c-1-2.4-1.5-6.1-1.5-11.3V43.6h-6.6V30.5h6.6V22Z"/><path class="e452fc18-b89a-4349-ad97-4e4005a81605" d="M626.4,12.8h17.9V36.5a24.2,24.2,0,0,1,7.2-5.4,20.5,20.5,0,0,1,8.5-1.6c4.9,0,8.7,1.5,11.5,4.4s4.2,7.5,4.2,13.7V77.2H657.8V51.6c0-3-.6-5-1.7-6.3a5.8,5.8,0,0,0-4.5-1.8,6.3,6.3,0,0,0-5.3,2.5c-1.4,1.6-2,4.6-2,8.8V77.2H626.4Z"/><path class="e452fc18-b89a-4349-ad97-4e4005a81605" d="M687.1,12.8h17.8V25H687.1Zm0,17.7h17.8V77.2H687.1Z"/><path class="e452fc18-b89a-4349-ad97-4e4005a81605" d="M713.2,64.3,731,62.6a8.5,8.5,0,0,0,3,4.5,9.5,9.5,0,0,0,5.3,1.4,8.5,8.5,0,0,0,5.6-1.6,3.3,3.3,0,0,0,1.5-2.8,3.2,3.2,0,0,0-2-3c-1-.5-3.5-1.1-7.7-1.8a84,84,0,0,1-12.9-3,14,14,0,0,1-6.1-4.7,11.9,11.9,0,0,1-2.5-7.5,12.3,12.3,0,0,1,2.7-8,16,16,0,0,1,7.4-5c3.1-1.1,7.3-1.6,12.6-1.6s9.6.4,12.3,1.3a15.1,15.1,0,0,1,6.6,3.9,19.2,19.2,0,0,1,4.4,7.3l-16.9,1.6a7.1,7.1,0,0,0-2.2-3.3,9.3,9.3,0,0,0-5.1-1.4,7.3,7.3,0,0,0-4.4,1.1,3,3,0,0,0-1.4,2.6,2.8,2.8,0,0,0,1.7,2.6c1.2.6,3.8,1.1,7.7,1.6,5.9.7,10.4,1.6,13.3,2.8a14.4,14.4,0,0,1,6.6,5.1,12.5,12.5,0,0,1,2.3,7.4,14.3,14.3,0,0,1-2.4,7.8,16.1,16.1,0,0,1-7.7,6.1c-3.5,1.5-8.3,2.3-14.3,2.3-8.5,0-14.6-1.2-18.2-3.7A16.4,16.4,0,0,1,713.2,64.3Z"/><path class="e452fc18-b89a-4349-ad97-4e4005a81605" d="M821.3,30.5h8.5V43.6h-8.5V77.2h-18V43.6h-6.6V30.5h6.6V28.4a28.1,28.1,0,0,1,.7-6.2,11.4,11.4,0,0,1,2.3-5.6A11.6,11.6,0,0,1,811,13c2-.9,5-1.3,9-1.3a130.3,130.3,0,0,1,13.6,1.1l-2,10.8a39.2,39.2,0,0,0-5.1-.5c-1.7,0-2.8.2-3.5.8a4.4,4.4,0,0,0-1.5,2.6A18.5,18.5,0,0,0,821.3,30.5Z"/><path class="e452fc18-b89a-4349-ad97-4e4005a81605" d="M886.7,58.3H850.8a11.5,11.5,0,0,0,2.3,6.4,8.4,8.4,0,0,0,6.8,3.1,10.9,10.9,0,0,0,5-1.3,12.2,12.2,0,0,0,3.1-3l17.7,1.6c-2.7,4.7-6,8.1-9.8,10.1s-9.3,3.1-16.4,3.1-11-.9-14.6-2.6a22.5,22.5,0,0,1-8.8-8.3A25.5,25.5,0,0,1,832.6,54c0-7.3,2.3-13.2,7-17.7s11.1-6.8,19.4-6.8c6.7,0,11.9,1,15.8,3a20.2,20.2,0,0,1,8.8,8.8c2.1,3.9,3.1,8.8,3.1,15Zm-18.2-8.5c-.4-3.5-1.3-6-2.8-7.5a8.8,8.8,0,0,0-12.8,1.2,12.3,12.3,0,0,0-2.1,6.3Z"/><path class="e452fc18-b89a-4349-ad97-4e4005a81605" d="M946.7,58.3H910.8c.4,2.9,1.1,5,2.4,6.4a8.1,8.1,0,0,0,6.7,3.1,10.6,10.6,0,0,0,5-1.3,14.2,14.2,0,0,0,3.2-3l17.6,1.6c-2.7,4.7-6,8.1-9.8,10.1s-9.2,3.1-16.4,3.1-11-.9-14.6-2.6a23.2,23.2,0,0,1-8.8-8.3A25.5,25.5,0,0,1,892.6,54c0-7.3,2.4-13.2,7-17.7s11.2-6.8,19.4-6.8,12,1,15.8,3a21,21,0,0,1,8.9,8.8c2,3.9,3,8.8,3,15Zm-18.2-8.5c-.4-3.5-1.3-6-2.8-7.5a8,8,0,0,0-5.9-2.2,8.1,8.1,0,0,0-6.9,3.4,13.3,13.3,0,0,0-2,6.3Z"/><path class="e452fc18-b89a-4349-ad97-4e4005a81605" d="M955.5,12.8h18V77.2h-18Z"/><path class="e452fc18-b89a-4349-ad97-4e4005a81605" d="M985.5,12.8h17.9V25H985.5Zm0,17.7h17.9V77.2H985.5Z"/><path class="e452fc18-b89a-4349-ad97-4e4005a81605" d="M1014.9,30.5h16.6v7.7a23.1,23.1,0,0,1,7.6-6.7,20,20,0,0,1,9.3-2c4.9,0,8.8,1.5,11.6,4.4s4.2,7.5,4.2,13.7V77.2h-18V51.6c0-3-.5-5-1.6-6.3a5.9,5.9,0,0,0-4.6-1.8,6.3,6.3,0,0,0-5.2,2.5c-1.4,1.6-2.1,4.6-2.1,8.8V77.2h-17.8Z"/><path class="e452fc18-b89a-4349-ad97-4e4005a81605" d="M1107.4,30.5h16.7V76.7a20.5,20.5,0,0,1-1.8,8.4,17.9,17.9,0,0,1-5,6.4,21.4,21.4,0,0,1-7.9,3.6,50.2,50.2,0,0,1-10.9,1.1c-9.4,0-15.8-1.4-19.3-4.3a13.6,13.6,0,0,1-5.2-11.3V78.3l17.4,2a5.4,5.4,0,0,0,2,3.3,8.7,8.7,0,0,0,5,1.4c2.6,0,4.5-.7,5.8-2.1s1.9-3.8,1.9-7.2V68.6a17.7,17.7,0,0,1-5.3,4.5,18.1,18.1,0,0,1-8.9,2.2c-6.3,0-11.3-2.7-15.1-8.1s-4.1-9-4.1-15.4,1.7-12.8,5.3-16.6,8.1-5.7,13.8-5.7a19.3,19.3,0,0,1,8.9,1.8,21,21,0,0,1,6.7,6.1Zm-16.9,22.7c0,3.3.7,5.8,2.2,7.5a7.1,7.1,0,0,0,5.6,2.4,7.4,7.4,0,0,0,5.7-2.5c1.5-1.7,2.2-4.2,2.2-7.6s-.8-6-2.4-7.8a7.3,7.3,0,0,0-5.8-2.7,6.7,6.7,0,0,0-5.4,2.4C1091.2,46.6,1090.5,49.3,1090.5,53.2Z"/></svg>