<svg id="a11e21a0-bb0a-4897-8e96-54f957cc8b6a" data-name="Layer 1" xmlns="http://www.w3.org/2000/svg" viewBox="0 0 1009.3 83.4"><defs><style>.ab316694-2a76-435d-9fed-968757639d7f{fill:#231f20;}</style></defs><title>inyourarmssotight</title><path class="ab316694-2a76-435d-9fed-968757639d7f" d="M104.9,12.8h17.9V25H104.9Zm0,17.7h17.9V77.2H104.9Z" transform="translate(-104.9 -12.8)"/><path class="ab316694-2a76-435d-9fed-968757639d7f" d="M134.2,30.5h16.6v7.7a24.1,24.1,0,0,1,7.6-6.7,20.3,20.3,0,0,1,9.3-2c5,0,8.8,1.5,11.6,4.4s4.2,7.5,4.2,13.7V77.2H165.6V51.6c0-3-.6-5-1.7-6.3a5.7,5.7,0,0,0-4.5-1.8,6.3,6.3,0,0,0-5.3,2.5c-1.4,1.6-2,4.6-2,8.8V77.2H134.2Z" transform="translate(-104.9 -12.8)"/><path class="ab316694-2a76-435d-9fed-968757639d7f" d="M219.1,30.5H238l9.6,31.1,8.9-31.1h17.7L255.6,80.4c-2.1,5.7-4.2,9.5-6.4,11.5s-7.9,4.3-14.2,4.3a106.3,106.3,0,0,1-12-1.1l-1.4-12.5a29.3,29.3,0,0,0,8.6,1.3,8.2,8.2,0,0,0,5.2-1.5,11.1,11.1,0,0,0,3.3-5.2Z" transform="translate(-104.9 -12.8)"/><path class="ab316694-2a76-435d-9fed-968757639d7f" d="M275.5,54c0-7.1,2.4-13,7.2-17.6s11.3-6.9,19.4-6.9,16.5,2.7,21.2,8.1a23.5,23.5,0,0,1,5.8,16.2c0,7.1-2.4,13-7.2,17.6s-11.3,6.9-19.7,6.9-13.6-1.9-18.2-5.7A23,23,0,0,1,275.5,54Zm17.9,0c0,4.1.8,7.2,2.5,9.2a8,8,0,0,0,6.4,3,7.7,7.7,0,0,0,6.3-3c1.7-1.9,2.5-5.1,2.5-9.4s-.8-7.1-2.5-9a7.8,7.8,0,0,0-6.2-3,8.2,8.2,0,0,0-6.5,3C294.3,46.8,293.4,49.9,293.4,54Z" transform="translate(-104.9 -12.8)"/><path class="ab316694-2a76-435d-9fed-968757639d7f" d="M386.9,77.2H370.2V69.7a23.8,23.8,0,0,1-7.6,6.6,20,20,0,0,1-9.3,2c-4.9,0-8.8-1.5-11.6-4.4s-4.2-7.5-4.2-13.6V30.5h18V56.2c0,2.9.5,5,1.6,6.3a5.9,5.9,0,0,0,4.6,1.8,6.3,6.3,0,0,0,5.2-2.5c1.4-1.6,2.1-4.5,2.1-8.8V30.5h17.9Z" transform="translate(-104.9 -12.8)"/><path class="ab316694-2a76-435d-9fed-968757639d7f" d="M397.9,30.5h16.7v7.7c1.7-3.3,3.3-5.6,5-6.8a10.3,10.3,0,0,1,6.4-1.9,18.1,18.1,0,0,1,8.6,2.5l-5.5,12.7a13.6,13.6,0,0,0-5-1.3,6.2,6.2,0,0,0-5.5,2.9q-2.7,4.1-2.7,15.3V77.2h-18Z" transform="translate(-104.9 -12.8)"/><path class="ab316694-2a76-435d-9fed-968757639d7f" d="M484,45.7l-17.1-1.8a18.8,18.8,0,0,1,2.8-7.1,15.2,15.2,0,0,1,5.2-4.4,20.1,20.1,0,0,1,6.8-2.2,54.9,54.9,0,0,1,9.3-.7,73.1,73.1,0,0,1,12.9.9,16,16,0,0,1,8.2,3.8,12.9,12.9,0,0,1,3.6,5.6,19.5,19.5,0,0,1,1.3,6.9V67.3a24.3,24.3,0,0,0,.4,5.2,26.8,26.8,0,0,0,1.8,4.7H502.4a29,29,0,0,1-1.3-2.7,22.1,22.1,0,0,1-.6-3,20.9,20.9,0,0,1-7,4.8,28.4,28.4,0,0,1-11,2c-5.6,0-9.8-1.3-12.7-3.9a12.3,12.3,0,0,1-4.3-9.5,12.5,12.5,0,0,1,3.1-8.8c2.1-2.3,5.9-4,11.5-5.1s11.1-2.3,13.1-2.8a66.4,66.4,0,0,0,6.3-2.1c0-2.2-.5-3.8-1.4-4.7a7.1,7.1,0,0,0-4.7-1.3c-3,0-5.2.5-6.6,1.4A7.6,7.6,0,0,0,484,45.7Zm15.5,9.4c-2.5.8-5,1.6-7.7,2.3s-5.9,1.9-6.9,2.9a4.3,4.3,0,0,0-1.5,3.3,4.3,4.3,0,0,0,1.5,3.4,6.1,6.1,0,0,0,4.3,1.3,10.8,10.8,0,0,0,5.6-1.4,9.3,9.3,0,0,0,3.6-3.5,12.2,12.2,0,0,0,1.1-5.5Z" transform="translate(-104.9 -12.8)"/><path class="ab316694-2a76-435d-9fed-968757639d7f" d="M527.9,30.5h16.7v7.7c1.6-3.3,3.3-5.6,5-6.8a10.3,10.3,0,0,1,6.4-1.9,18.1,18.1,0,0,1,8.6,2.5l-5.5,12.7a13.6,13.6,0,0,0-5-1.3,6.1,6.1,0,0,0-5.5,2.9q-2.7,4.1-2.7,15.3V77.2h-18Z" transform="translate(-104.9 -12.8)"/><path class="ab316694-2a76-435d-9fed-968757639d7f" d="M572.3,30.5H589v6.9a22.2,22.2,0,0,1,7.3-6.1,19.7,19.7,0,0,1,8.8-1.8,17.3,17.3,0,0,1,8.9,2,15.3,15.3,0,0,1,5.3,5.9,26.6,26.6,0,0,1,7.7-6.3,19.5,19.5,0,0,1,8.5-1.6c5,0,8.9,1.5,11.8,4.5s4.2,7.6,4.2,13.9V77.2h-18V50.6a7.8,7.8,0,0,0-1.2-4.7,5.4,5.4,0,0,0-4.5-2.4,6.1,6.1,0,0,0-5,2.3c-1.3,1.5-2,4-2,7.3V77.2H602.9V51.5a19.9,19.9,0,0,0-.3-4.2,6.3,6.3,0,0,0-2-2.8,5.7,5.7,0,0,0-3.3-1.1,6.3,6.3,0,0,0-5.1,2.4c-1.3,1.5-2,4.1-2,7.6V77.2H572.3Z" transform="translate(-104.9 -12.8)"/><path class="ab316694-2a76-435d-9fed-968757639d7f" d="M659,64.3l17.7-1.7a7.9,7.9,0,0,0,8.4,5.9,8.7,8.7,0,0,0,5.6-1.6,3.3,3.3,0,0,0-.5-5.8c-1-.5-3.5-1.1-7.7-1.8a84,84,0,0,1-12.9-3,14.3,14.3,0,0,1-6.2-4.7,12.4,12.4,0,0,1-2.4-7.5,12.8,12.8,0,0,1,2.6-8,16.5,16.5,0,0,1,7.4-5,39.8,39.8,0,0,1,12.6-1.6c5.6,0,9.7.4,12.4,1.3a15.7,15.7,0,0,1,6.6,3.9A20.6,20.6,0,0,1,707,42l-16.9,1.6a7.1,7.1,0,0,0-2.2-3.3,9.8,9.8,0,0,0-5.1-1.4,7.6,7.6,0,0,0-4.5,1.1,3.2,3.2,0,0,0-1.3,2.6,2.7,2.7,0,0,0,1.7,2.6c1.2.6,3.7,1.1,7.7,1.6,5.9.7,10.3,1.6,13.2,2.8a14.7,14.7,0,0,1,6.7,5.1,13.2,13.2,0,0,1,2.3,7.4,14.3,14.3,0,0,1-2.4,7.8,16.6,16.6,0,0,1-7.7,6.1c-3.5,1.5-8.3,2.3-14.3,2.3-8.6,0-14.6-1.2-18.3-3.7A16.3,16.3,0,0,1,659,64.3Z" transform="translate(-104.9 -12.8)"/><path class="ab316694-2a76-435d-9fed-968757639d7f" d="M744,64.3l17.7-1.7a7.9,7.9,0,0,0,8.4,5.9,8.7,8.7,0,0,0,5.6-1.6,3.3,3.3,0,0,0-.5-5.8c-1-.5-3.6-1.1-7.7-1.8a89.3,89.3,0,0,1-13-3,14.6,14.6,0,0,1-6.1-4.7,12.5,12.5,0,0,1-2.5-7.5,12.3,12.3,0,0,1,2.7-8,16.5,16.5,0,0,1,7.4-5c3.1-1.1,7.4-1.6,12.6-1.6s9.7.4,12.4,1.3a15.7,15.7,0,0,1,6.6,3.9A20.6,20.6,0,0,1,792,42l-17,1.6a5.9,5.9,0,0,0-2.2-3.3,9.3,9.3,0,0,0-5.1-1.4,7.5,7.5,0,0,0-4.4,1.1,3.3,3.3,0,0,0-1.4,2.6,2.8,2.8,0,0,0,1.8,2.6c1.2.6,3.7,1.1,7.7,1.6,5.9.7,10.3,1.6,13.2,2.8a15.2,15.2,0,0,1,6.7,5.1,13.2,13.2,0,0,1,2.3,7.4,13.6,13.6,0,0,1-2.5,7.8,15.8,15.8,0,0,1-7.6,6.1c-3.5,1.5-8.3,2.3-14.3,2.3-8.6,0-14.6-1.2-18.3-3.7A16.3,16.3,0,0,1,744,64.3Z" transform="translate(-104.9 -12.8)"/><path class="ab316694-2a76-435d-9fed-968757639d7f" d="M799.9,54c0-7.1,2.4-13,7.2-17.6s11.3-6.9,19.5-6.9,16.4,2.7,21.2,8.1a23.9,23.9,0,0,1,5.7,16.2,23.7,23.7,0,0,1-7.1,17.6q-7.2,6.9-19.8,6.9c-7.5,0-13.5-1.9-18.2-5.7A23.3,23.3,0,0,1,799.9,54Zm17.9,0c0,4.1.9,7.2,2.6,9.2a8.2,8.2,0,0,0,12.7,0c1.6-1.9,2.5-5.1,2.5-9.4s-.9-7.1-2.6-9a7.6,7.6,0,0,0-6.1-3,8.1,8.1,0,0,0-6.5,3C818.7,46.8,817.8,49.9,817.8,54Z" transform="translate(-104.9 -12.8)"/><path class="ab316694-2a76-435d-9fed-968757639d7f" d="M913.7,12.8V30.5h9.9V43.6h-9.9V60.2q0,3,.6,3.9a3.3,3.3,0,0,0,3.1,1.5,21.8,21.8,0,0,0,5.5-1.1l1.3,12.3a55.9,55.9,0,0,1-12.4,1.5c-4.4,0-7.7-.6-9.8-1.7a10.8,10.8,0,0,1-4.7-5.2c-1-2.4-1.5-6.1-1.5-11.3V43.6h-6.6V30.5h6.6V22Z" transform="translate(-104.9 -12.8)"/><path class="ab316694-2a76-435d-9fed-968757639d7f" d="M932.8,12.8h17.8V25H932.8Zm0,17.7h17.8V77.2H932.8Z" transform="translate(-104.9 -12.8)"/><path class="ab316694-2a76-435d-9fed-968757639d7f" d="M994.5,30.5h16.8V76.7a20.5,20.5,0,0,1-1.8,8.4,17.9,17.9,0,0,1-5,6.4,21.4,21.4,0,0,1-7.9,3.6,50.2,50.2,0,0,1-10.9,1.1c-9.4,0-15.8-1.4-19.3-4.3a13.7,13.7,0,0,1-5.3-11.3c0-.5.1-1.3.1-2.3l17.4,2a5.4,5.4,0,0,0,2,3.3,8.7,8.7,0,0,0,5,1.4c2.6,0,4.5-.7,5.8-2.1s1.9-3.8,1.9-7.2V68.6a17.7,17.7,0,0,1-5.3,4.5,18.3,18.3,0,0,1-8.9,2.2c-6.3,0-11.3-2.7-15.1-8.1s-4.1-9-4.1-15.4,1.7-12.8,5.2-16.6a18.2,18.2,0,0,1,13.8-5.7,19.5,19.5,0,0,1,9,1.8,19.8,19.8,0,0,1,6.6,6.1ZM977.7,53.2c0,3.3.7,5.8,2.2,7.5a7.1,7.1,0,0,0,5.6,2.4,7,7,0,0,0,5.6-2.5c1.6-1.7,2.3-4.2,2.3-7.6s-.8-6-2.4-7.8a7.3,7.3,0,0,0-5.8-2.7,6.6,6.6,0,0,0-5.4,2.4C978.4,46.6,977.7,49.3,977.7,53.2Z" transform="translate(-104.9 -12.8)"/><path class="ab316694-2a76-435d-9fed-968757639d7f" d="M1022.1,12.8H1040V36.5a24.2,24.2,0,0,1,7.2-5.4,20.6,20.6,0,0,1,8.6-1.6c4.8,0,8.7,1.5,11.5,4.4s4.2,7.5,4.2,13.7V77.2h-18V51.6c0-3-.6-5-1.6-6.3a6,6,0,0,0-4.6-1.8A6.4,6.4,0,0,0,1042,46c-1.3,1.6-2,4.6-2,8.8V77.2h-17.9Z" transform="translate(-104.9 -12.8)"/><path class="ab316694-2a76-435d-9fed-968757639d7f" d="M1103.7,12.8V30.5h9.9V43.6h-9.9V60.2q0,3,.6,3.9a3.3,3.3,0,0,0,3.1,1.5,21.8,21.8,0,0,0,5.5-1.1l1.3,12.3a55.9,55.9,0,0,1-12.4,1.5c-4.4,0-7.7-.6-9.8-1.7a10.8,10.8,0,0,1-4.7-5.2c-1-2.4-1.5-6.1-1.5-11.3V43.6h-6.6V30.5h6.6V22Z" transform="translate(-104.9 -12.8)"/></svg>