<svg id="f7e7542b-49e2-4b10-8997-c9716f114a60" data-name="bc77ce97-4ca3-4e46-bfe0-ecd9250994f5" xmlns="http://www.w3.org/2000/svg" viewBox="0 0 97.2 76.5"><defs><style>.a4c32581-a6a0-40b7-b42f-70ea3955bd94{fill:#231f20;}</style></defs><title>love</title><path class="a4c32581-a6a0-40b7-b42f-70ea3955bd94" d="M13,.7h.3c.1,0,.2.1.2.3-.6,5.2-1.1,9.5-1.4,13.1h0v.7h0v1.3c0,1.4-.1,2.1-.2,2.1v1.4a.4.4,0,0,0,.1.3.4.4,0,0,0-.1.3v1.4H12v.2h-.1V24a8.6,8.6,0,0,1-.1,1.6v.5a.4.4,0,0,0-.1.3c0,.1,0,.1.1.2h-.1v.4h0v.3a.4.4,0,0,0,.1.3,1.7,1.7,0,0,1-.1.7v.7a26.4,26.4,0,0,1-.2,2.8c.1.5.1.8.2.9s-.1.2-.1.3h.1c0,.1,0,.1-.1.1v1c0,.1-.1.2-.1.3l.2,1.5a4.1,4.1,0,0,1-.1,1.1v.4c0,.1,0,.1-.1.1v.2c0,1.1-.1,1.8-.1,2.1s.1.9.1,1.8v.2h.1L12,45v.2L11.8,48a5.7,5.7,0,0,1,.1,1.3v.3h-.1c0,.1,0,.1.1.1v1.1h-.1V53a10.9,10.9,0,0,0,.1,1.8.9.9,0,0,0-.1.5,16.2,16.2,0,0,1,.1,2.2v1.8a7.4,7.4,0,0,1,0,2.1,74.5,74.5,0,0,0,9.5.7,5.8,5.8,0,0,0,2.3-.2h1.9l1.1-.2h.2l4.2-.8c.4,0,.6-.1.6-.2h1l.6-.2h.2c.1,0,.1,0,.1.1h.9c-.1,1-.2,2-.4,3s-.1,2.2-.1,2.8v2.1a.6.6,0,0,1-.1.4c-.1,2.3-.1,4-.1,5.2v.7a2.8,2.8,0,0,1,.1.9h0v.2l-6.6-.4h-.5l-5.9-.2H12.1l-1.2.2H5.3l-4.6.4c.2-2.1.3-3.9.4-5.3a7.5,7.5,0,0,1,.2-2.1c0-.1,0-.1-.1-.1s.1-.4.2-.4v-.4c0-.5.1-1.5.2-3H1.4v-.9a9.9,9.9,0,0,1,.2-1.7.4.4,0,0,1-.1-.3h0a26.4,26.4,0,0,0,.2-2.8v-.9A12.4,12.4,0,0,1,2,55.2c-.1-.1-.1-.1-.1-.2a2.2,2.2,0,0,1,.1-.8.9.9,0,0,1-.1-.5l.2-.7v-.5a.7.7,0,0,0,.1-.5c0-2.2.2-4.5.4-6.8h0c.1-1.5.1-2.7.1-3.7h.1v-.4c.1-.1.1-.1.1-.2v-.5h0L3.1,39c-.1-.1-.1-.1-.1-.2s.1-.5.1-.7v-.5c0-.2-.1-.5-.1-.7s0-.1.1-.1a14.9,14.9,0,0,1-.2-2.1v-.8a.4.4,0,0,0-.1-.3c0-.1,0-.1.1-.1V32c0-.1,0-.1.1-.1H2.5v-.2c0-.8.1-1.7.1-2.7s-.1-.5-.1-.6.2-.3.2-.5v-.3a7.6,7.6,0,0,1,.1-1.5v-.4h.1c.1,0-.1-.1-.1-.3s.1-1.6.1-2V23H3v-.2a3.4,3.4,0,0,1,.1-1H2.7a.4.4,0,0,1,.1-.3c-.1-1.7-.1-2.9-.1-3.7a.9.9,0,0,0-.1-.5h.1v-.2l.2-.3H2.7v-.4c-.1-2.4-.2-4-.2-4.7v-.2c.1,0,.1-.2.1-.3v-.3a1.7,1.7,0,0,0-.1-.7h.1c0-.5-.1-.8-.1-1.1V7.8h0v-2C2.4,4.5,2.1,2.9,1.8,1l3,.3H9.4l2.1-.2h0Z"/><path class="a4c32581-a6a0-40b7-b42f-70ea3955bd94" d="M26.2,3h2.2a18.6,18.6,0,0,1,4.7.9,20.6,20.6,0,0,1,4.1,2.3A11.5,11.5,0,0,1,40.3,10a24.9,24.9,0,0,1,.8,6.1c0,.2,0,.9.1,2.2h-.1l.2,1.3h-.1v.2a7.5,7.5,0,0,0,.2,2.1v.2a13.4,13.4,0,0,1,.1,2h0v7.6h0v.5h0v.2h0v1.7h0v2.3c0,.1.1.2.1.4a1.7,1.7,0,0,0-.1.7c0,.1,0,.1.1.1v.6a13.2,13.2,0,0,1-.2,2.8v1c0,.5-.1.8-.2.8h.1c-.1,1.1-.1,2-.1,2.7L41,47v.4a14,14,0,0,1-.6,2.8h.1a11.1,11.1,0,0,1-1.6,3.9,10,10,0,0,1-3.5,3.3c-.3.3-1.6.8-4,1.3H28.9c-.1,0-.1,0-.1-.1h-.1l-1.5-.4-.2.2-1.1-.2-.3.2L23.3,58a6.5,6.5,0,0,1-3.2-1.9,11.5,11.5,0,0,1-2.5-5.2,48.6,48.6,0,0,1-1-5.5h.1l-.3-2.6A127.1,127.1,0,0,1,16.2,29c.1-3.8.2-5.9.1-6.2l.2-.8a.9.9,0,0,1-.1-.5,11.4,11.4,0,0,1,.2-2.6,1.3,1.3,0,0,0-.1-.6c.1-.7.2-1.6.3-2.5v-.2l.4-2v-.5c0-.9.2-1.4.4-1.4v-.2a9,9,0,0,1,.9-3.2.4.4,0,0,1-.1-.3h.1V7.8c.1-.5.9-1.5,2.5-3.1A10.4,10.4,0,0,1,26.2,3Zm.4,15.3h.1v.7l-.3,5.7a.4.4,0,0,1,.1.3h0v2.7c0,.2,0,.3.1.4a.4.4,0,0,0-.1.3.6.6,0,0,0,.1.4h-.1c0,.1.1.2.1.3s-.1.8-.2,1.5a.9.9,0,0,1,.1.5h-.1v.2a4.1,4.1,0,0,1-.1,1.1h.1a.4.4,0,0,1-.1.3c.1,1.8.2,2.8.2,3h-.1c0,.1,0,.1.1.1v1.2a.6.6,0,0,0,.1.4v.3c0,6.5.5,10.6,1.3,12.2s.8,1.1,1.3,1,1.7-1.4,2.5-4.5a4.7,4.7,0,0,1,.3-1.7h-.1a13.4,13.4,0,0,0,.1-2V38h0v-.3c0-1,0-1.5.1-1.5s0-.1-.1-.1v-.7a20.9,20.9,0,0,0-.1-2.5v-.8c0-1.3.1-1.9.2-1.9V30h0c0-.1,0-.1.1-.1L32,28.8v-3h0c-.1,0-.1-.1-.1-.2s0-.2.1-.2a1.9,1.9,0,0,0-.2-.7h.1a.4.4,0,0,1-.1-.3v-.2l-.3-2.7h0v-.4h-.2V19.7h.1c-.2-1.4-.4-2.1-.4-2.2v-.3q-.2,0-.3-.6H31a21.5,21.5,0,0,0-1.5-5.1c-.4-.7-.6-1-.7-1h-.1c-.4,0-.9,1-1.5,3.2A36.2,36.2,0,0,1,26.6,18.3Z"/><path class="a4c32581-a6a0-40b7-b42f-70ea3955bd94" d="M42.9,0h0a9.2,9.2,0,0,0,2.7.8h.2l.7.2h.4l1.2.2h.6L51.9.9h.3l.3.4a26.3,26.3,0,0,1-.6,3.9h.2V6.9A14.9,14.9,0,0,1,51.9,9a.6.6,0,0,0,.1.4,1.7,1.7,0,0,0-.1.7v.4a2.8,2.8,0,0,0,.1.9,1.4,1.4,0,0,0-.2.6v.6h-.1a.4.4,0,0,1,.1.3l-.2.4v2.1h0v1.7c0,.1.1.3.1.4h-.1v.2h-.1c0,.1,0,.1.1.1v1.7a.4.4,0,0,0,.1.3,9.7,9.7,0,0,0-.2,2.4c0,.1,0,.2-.1.2v1.3a2.8,2.8,0,0,1-.1.9l.3,5v3.9c0,.2-.1.4-.1.7v.5h0v.2l.3,2.2v.2l.2.7h-.1v.2h0a6.6,6.6,0,0,0,.1,1.4c0,.1,0,.1-.1.1v2.4a14.2,14.2,0,0,0,.2,2.9h0v1.7q.5,4,.6,4.8a.4.4,0,0,0-.1.3l.2.3a1.4,1.4,0,0,1,.2-.6c0-.1,0-.1-.1-.1a64.4,64.4,0,0,0,1.7-9.6c.1,0,.2-.1.2-.4h-.1a.2.2,0,0,0,.2-.2h0c.2-2.3.4-3.4.6-3.4h0v-.7a6.3,6.3,0,0,1,.3-1.9V35a31.1,31.1,0,0,0,.6-4.4.4.4,0,0,0,.1-.3V30l-.2-.2a.5.5,0,0,0,.3-.5v-.4h-.2v-.2c-.1-.1-.1-.1-.1-.2s.3-.1.3-.2a11.5,11.5,0,0,1,.3-2.6v-.2l.2-.4v-.4a16.2,16.2,0,0,1,.1-2.2h0V20.6c0-.2.1-.7.2-1.4l-.2-.5c.1-.4.1-.5.2-.5h-.1a1.1,1.1,0,0,1,.3-.8l-.2-.2h.2v-.2h0a.4.4,0,0,1,.1-.3c0-.1,0-.1-.1-.1v-2h0V11.7a.4.4,0,0,0-.1-.3,4.9,4.9,0,0,0,.1-1.2c0-.9,0-2.4.1-4.5h-.1c.1-.7.2-1.1.2-1.1V4c.1-.5.2-.7.3-.7h1.6l1.7-.2h.5a10.3,10.3,0,0,0,3-.4H65a5,5,0,0,0,2.1-.2h.5a13.4,13.4,0,0,1,2.7-.7V2a16.6,16.6,0,0,0-1.1,3.8c0,.1.1.2.1.3a10.8,10.8,0,0,0-.7,3.1l-.3,2.2h.1a34.4,34.4,0,0,0-1,6.3,45.4,45.4,0,0,0-.9,5.1.4.4,0,0,1,.1.3,9.9,9.9,0,0,0-.2,1.7v.4a4.1,4.1,0,0,1-.1,1.1v.4c-.1.6-.2,1-.2,1h.1v1.4c0,.2-.1.5-.2,1.1s.1.2.1.3-.1.4-.2,1,0,.1.1.1v1.1a.4.4,0,0,1-.1.3c0,.1,0,.1.1.1s-.1.9-.2,1h.1v1.5a9.9,9.9,0,0,0-.2,1.7v.2l-.6,3.2h.1v2.6h0v2.4l-.3.3.3.3h-.3V48h.2c-.1.5-.3,1-.4,1.6a2.8,2.8,0,0,1,.1.9h-.1c.1.1.1.1.1.2l-.5,6.7v.9H64a.4.4,0,0,1,.1.3.9.9,0,0,0-.1.5h0v.7a14.9,14.9,0,0,1-.2,2.1v1.7a2,2,0,0,0-.2,1.1c0,.2.1.4.1.7h-.1v.2l-.5,4a2.8,2.8,0,0,0,.1.9l-.3.6v1a5.4,5.4,0,0,1-.4,2.2H59.4a3.2,3.2,0,0,0-1.4.2h-.8l-.2-.2H54.7l-.7.2h-.3l-1.6.2H50.9a29.8,29.8,0,0,1-5.1.7h-.3v-.4a9.7,9.7,0,0,1,.1-1.7c0-.1,0-.2-.1-.2V68.6c0-.2,0-.3.1-.4h-.1v-.3a.4.4,0,0,1-.1-.3h.1c0-.1-.1-.2-.1-.3a8.2,8.2,0,0,1,.2-2.7c0-.3-.1-.5-.1-.7v-.2h.1v-.6c0-.2.1-.3.1-.4a2.8,2.8,0,0,0-.1-.9v-4h0a4.9,4.9,0,0,0,.1-1.2V55a1.7,1.7,0,0,1,.1-.7h-.1a2.7,2.7,0,0,0,.3-1.2v-.6a.6.6,0,0,1,0-.6v-.5c0-.2,0-.3-.1-.3s.1-.4.2-.6-.1-2.5-.2-3H46V44.4a1.3,1.3,0,0,0-.1-.6,1.3,1.3,0,0,0,.1-.6V41.5a4.9,4.9,0,0,0-.1-1.2H46V35.7h.1V35c0-.1,0-.1.1-.1a.4.4,0,0,1-.1-.3c0-.5-.1-1.3-.2-2.2H46v-.2h.1V27.9a19.3,19.3,0,0,0-.1-2.4v-.2h-.1v-.4c-.3-2.6-.6-6.5-.8-11.7a74.7,74.7,0,0,0-1.2-9.5,10.9,10.9,0,0,0-.7-3h-.1V.2Z"/><path class="a4c32581-a6a0-40b7-b42f-70ea3955bd94" d="M96.7,2.6H97l.2.2c0,.6-.1,1-.4,1.1H97a7.7,7.7,0,0,0-.6,3,5.7,5.7,0,0,0-.1,1.3v.2c-.1.6-.2,1.6-.3,2.9h0a11.4,11.4,0,0,0-.2,2.6v.2c-.1.8-.2,1.3-.3,1.3h.1a.9.9,0,0,0-.1.5,2.2,2.2,0,0,0,.1.8c0,.1,0,.1-.1.2a.9.9,0,0,1,.1.5v.7a4.9,4.9,0,0,1,.1,1.2,13.3,13.3,0,0,1-.3,2.8v2.2c0,.1-.1.2-.4.2l-1.8-.2h-1l-2.4-.4H83.7l-1.2.3h-.2c-1.1,0-1.6.2-1.6.6h0a13.6,13.6,0,0,1-.2,2V27c-.1,1-.2,2.1-.2,3.1h0v.2c0,.6.1,1.5.1,2.7v.3c.1.6.4.9.7.9h.1a9,9,0,0,0,2.8.4h6.7c0,.1-.2.8-.3,1.8a4.5,4.5,0,0,0-.4,2c-.2,0-.2.5-.3,1.4v5.5h-.2L87.3,45h-2c-1.7,0-2.6.2-2.6.6a10.1,10.1,0,0,1-.3,1.7v.2h-.1c0,.1,0,.1.1.1v1.3h-.1v.2a4.3,4.3,0,0,0-.2,1.1v.5c0,.2,0,.3.1.4s-.1.5-.2,1.5a9.7,9.7,0,0,1,.1,1.7h0v1.4H82v.2c0,.1,0,.1-.1.1s.2.7.4.7h1.2c.4-.1.6-.1.6-.2h.3l3.6-.6h.4l1.6-.3h1.4l.9-.2h1.4a22,22,0,0,1-.7,3.7h.1c-.1.5-.2,1.2-.3,2.2v.9a8.6,8.6,0,0,0,.1,1.6c0,.2-.1.5-.1.7a17.3,17.3,0,0,1,.3,3.2H93l.2.3v.7l.4,2.4v.2a6.3,6.3,0,0,0,.3,1.9H94a4,4,0,0,1,.3,1.5l-.3.2H93l-2.5-.3h-.1l-2.7-.3h-.3l-.2-.2c-.1,0-.1,0-.1.1H84.9l-1.3.2H78.7l-.5.2H69.3a4,4,0,0,0,.3-1.5v-.6l.2-.2v-.2a10.2,10.2,0,0,0,.3-3.5c.1,0,.1-.2.2-.5v-.5h-.1a6.2,6.2,0,0,0,.2-1.9v-.2a7.7,7.7,0,0,0,.2-1.5.4.4,0,0,1-.1-.3h0c.1-1.1.2-1.7.2-1.7h0v-.4h0a11,11,0,0,1,.2-1.8h-.1a21.9,21.9,0,0,0,.3-3.6v-.5h0l.2-1.7V52.2c0-.1,0-.1.1-.1s-.1-.1-.1-.2a3.6,3.6,0,0,1,.2-1,4.1,4.1,0,0,1-.1-1.1c0-.9,0-2.1.1-3.4v-.2a12.1,12.1,0,0,1-.1-1.9h.1v-.4h-.1V42h0c0-2.1.1-3.2.1-3.4V38a12.1,12.1,0,0,0,.1-1.9.9.9,0,0,0-.1-.5h.1c0-.5-.1-1.9-.1-3.9V30.2h0V28.8c0-.3-.1-.5-.1-.8s.1-.8.1-1.6V23.3h-.1c0-.4.1-.5.1-.5V21.3c0-.1-.1-.2-.1-.3v-.2h-.1a1.7,1.7,0,0,1,.1-.7v-.5l-.2-2.1v-.2a12.3,12.3,0,0,1-.2-1.9h0V14h.1V12.6a4.1,4.1,0,0,1,.1-1.1c-.1-1.4-.2-2.1-.2-2.1V8.3L70.6,8V6.1l-.2-.3h0c.1-.8.2-1.3.4-1.3h1.6l4.8-.3,1.4.2,4.2-.5h0a10.9,10.9,0,0,1,2.5-.4H86l3-.6h.8l.7-.3h6.2Z"/></svg>