<svg id="ef8b2594-c3d9-4532-ae8c-2ec51fed1587" data-name="ed1a79ab-818d-4898-adf1-6ddbff3ad925" xmlns="http://www.w3.org/2000/svg" viewBox="0 0 69 28.6"><defs><style>.b1953844-b0a2-4b8b-aa2b-a810c886f60d{fill:#231f20;}</style></defs><title>that</title><path class="b1953844-b0a2-4b8b-aa2b-a810c886f60d" d="M16.2.1l-.3,7.1H11.2l.3,21.2L5,28.1V6.7L0,6.9.3.2Z"/><path class="b1953844-b0a2-4b8b-aa2b-a810c886f60d" d="M24.3,16.9V28.3l-6.5-.2V.2h6.4V10.3h5.1V.3L35.8,0l-.2,28.3-6.4-.2V16.7Z"/><path class="b1953844-b0a2-4b8b-aa2b-a810c886f60d" d="M42.5,25.3l-.4,3H35.6L39.7-.1l8.4.3L54.6,28l-6.5.3-.6-2.9Zm3.7-5.7-1.7-8.3-1.2,8.4Z"/><path class="b1953844-b0a2-4b8b-aa2b-a810c886f60d" d="M68.6.1l-.3,7.1H63.5l.4,21.2-6.5-.2V6.7l-5,.2L52.8.2Z"/></svg>