<svg id="ec97e4fb-5232-4522-897d-31bf9e87bb98" data-name="Layer 1" xmlns="http://www.w3.org/2000/svg" viewBox="0 0 905.6 83.4"><defs><style>.ad80e53b-7ac1-44a8-a908-c8e4ce15331f{fill:#231f20;}</style></defs><title>whatyoudotome</title><path class="ad80e53b-7ac1-44a8-a908-c8e4ce15331f" d="M153.6,30.5h17.3l7.5,29.4,9.5-29.4H204L213.9,60l7.5-29.5h17.2L221.4,77.2H205.5l-9.4-28.1-9.2,28.1h-16Z" transform="translate(-153.6 -12.8)"/><path class="ad80e53b-7ac1-44a8-a908-c8e4ce15331f" d="M245.3,12.8h17.9V36.5a25.8,25.8,0,0,1,7.3-5.4,20.2,20.2,0,0,1,8.5-1.6c4.9,0,8.7,1.5,11.5,4.4s4.2,7.5,4.2,13.7V77.2h-18V51.6c0-3-.5-5-1.6-6.3a5.9,5.9,0,0,0-4.6-1.8,6.3,6.3,0,0,0-5.2,2.5c-1.4,1.6-2.1,4.6-2.1,8.8V77.2H245.3Z" transform="translate(-153.6 -12.8)"/><path class="ad80e53b-7ac1-44a8-a908-c8e4ce15331f" d="M321.7,45.7l-17.1-1.8a18.8,18.8,0,0,1,2.8-7.1,14.3,14.3,0,0,1,5.2-4.4,20.1,20.1,0,0,1,6.8-2.2,54.9,54.9,0,0,1,9.3-.7,73.1,73.1,0,0,1,12.9.9,16,16,0,0,1,8.2,3.8,12.9,12.9,0,0,1,3.6,5.6,22,22,0,0,1,1.3,6.9V67.3a24.3,24.3,0,0,0,.4,5.2,26.8,26.8,0,0,0,1.8,4.7H340.1a29,29,0,0,1-1.3-2.7,22.1,22.1,0,0,1-.6-3,20.9,20.9,0,0,1-7,4.8,28.4,28.4,0,0,1-11,2c-5.6,0-9.8-1.3-12.7-3.9a12.3,12.3,0,0,1-4.3-9.5,12.5,12.5,0,0,1,3.1-8.8c2.1-2.3,5.9-4,11.5-5.1s11.1-2.3,13.1-2.8a66.4,66.4,0,0,0,6.3-2.1c0-2.2-.5-3.8-1.4-4.7s-2.5-1.3-4.8-1.3a13,13,0,0,0-6.6,1.4A8.1,8.1,0,0,0,321.7,45.7Zm15.5,9.4c-2.5.8-5,1.6-7.7,2.3s-5.9,1.9-6.9,2.9a4.3,4.3,0,0,0-1.5,3.3,4.3,4.3,0,0,0,1.5,3.4,6.1,6.1,0,0,0,4.3,1.3,10.8,10.8,0,0,0,5.6-1.4,9.3,9.3,0,0,0,3.6-3.5,12.2,12.2,0,0,0,1.1-5.5Z" transform="translate(-153.6 -12.8)"/><path class="ad80e53b-7ac1-44a8-a908-c8e4ce15331f" d="M385.4,12.8V30.5h9.9V43.6h-9.9V60.2q0,3,.6,3.9a3.3,3.3,0,0,0,3.1,1.5,21,21,0,0,0,5.5-1.1l1.3,12.3a55.7,55.7,0,0,1-12.3,1.5c-4.5,0-7.8-.6-9.9-1.7a10.8,10.8,0,0,1-4.7-5.2c-1-2.4-1.5-6.1-1.5-11.3V43.6h-6.6V30.5h6.6V22Z" transform="translate(-153.6 -12.8)"/><path class="ad80e53b-7ac1-44a8-a908-c8e4ce15331f" d="M428.7,30.5h18.9l9.6,31.1,8.9-31.1h17.7L465.2,80.4c-2.1,5.7-4.2,9.5-6.4,11.5s-7.9,4.3-14.2,4.3a106.3,106.3,0,0,1-12-1.1l-1.4-12.5a29.3,29.3,0,0,0,8.6,1.3,8.4,8.4,0,0,0,5.2-1.5,11.1,11.1,0,0,0,3.3-5.2Z" transform="translate(-153.6 -12.8)"/><path class="ad80e53b-7ac1-44a8-a908-c8e4ce15331f" d="M485.1,54c0-7.1,2.4-13,7.2-17.6s11.3-6.9,19.4-6.9,16.4,2.7,21.2,8.1a23.5,23.5,0,0,1,5.8,16.2c0,7.1-2.4,13-7.2,17.6s-11.3,6.9-19.7,6.9-13.6-1.9-18.2-5.7A23,23,0,0,1,485.1,54ZM503,54c0,4.1.8,7.2,2.5,9.2a8,8,0,0,0,6.4,3,7.7,7.7,0,0,0,6.3-3c1.7-1.9,2.5-5.1,2.5-9.4s-.8-7.1-2.5-9a7.8,7.8,0,0,0-6.2-3,8.2,8.2,0,0,0-6.5,3C503.8,46.8,503,49.9,503,54Z" transform="translate(-153.6 -12.8)"/><path class="ad80e53b-7ac1-44a8-a908-c8e4ce15331f" d="M596.5,77.2H579.8V69.7a23.8,23.8,0,0,1-7.6,6.6,20,20,0,0,1-9.3,2c-4.9,0-8.8-1.5-11.6-4.4s-4.2-7.5-4.2-13.6V30.5h18V56.2c0,2.9.5,5,1.6,6.3a5.9,5.9,0,0,0,4.6,1.8,6.3,6.3,0,0,0,5.2-2.5c1.4-1.6,2.1-4.5,2.1-8.8V30.5h17.9Z" transform="translate(-153.6 -12.8)"/><path class="ad80e53b-7ac1-44a8-a908-c8e4ce15331f" d="M686.5,12.8V77.2H669.7V70.3a24.5,24.5,0,0,1-6.4,6,18.8,18.8,0,0,1-8.6,2c-6.4,0-11.2-2.4-14.6-7.3s-5-10.7-5-17.6,1.9-13.7,5.6-17.8a18.1,18.1,0,0,1,14.1-6.1,20.6,20.6,0,0,1,7.6,1.4,17.2,17.2,0,0,1,6,4.2V12.8Zm-18,41c0-3.7-.7-6.4-2.3-8.2a7.4,7.4,0,0,0-5.9-2.7,6.4,6.4,0,0,0-5.2,2.5q-2.1,2.7-2.1,8.7c0,3.9.7,6.6,2.2,8.4a6.5,6.5,0,0,0,5.3,2.7,7.4,7.4,0,0,0,5.8-2.7C667.8,60.7,668.5,57.8,668.5,53.8Z" transform="translate(-153.6 -12.8)"/><path class="ad80e53b-7ac1-44a8-a908-c8e4ce15331f" d="M695.2,54c0-7.1,2.4-13,7.2-17.6s11.3-6.9,19.4-6.9,16.5,2.7,21.2,8.1a23.5,23.5,0,0,1,5.8,16.2c0,7.1-2.4,13-7.2,17.6s-11.3,6.9-19.7,6.9-13.6-1.9-18.2-5.7A23,23,0,0,1,695.2,54Zm17.9,0c0,4.1.8,7.2,2.5,9.2a8,8,0,0,0,6.4,3,7.7,7.7,0,0,0,6.3-3c1.7-1.9,2.5-5.1,2.5-9.4s-.8-7.1-2.5-9a7.8,7.8,0,0,0-6.2-3,8.2,8.2,0,0,0-6.5,3C714,46.8,713.1,49.9,713.1,54Z" transform="translate(-153.6 -12.8)"/><path class="ad80e53b-7ac1-44a8-a908-c8e4ce15331f" d="M809,12.8V30.5h9.8V43.6H809V60.2q0,3,.6,3.9a3.1,3.1,0,0,0,3,1.5,21.6,21.6,0,0,0,5.6-1.1l1.3,12.3a56.6,56.6,0,0,1-12.4,1.5c-4.5,0-7.7-.6-9.8-1.7a10.4,10.4,0,0,1-4.7-5.2c-1-2.4-1.5-6.1-1.5-11.3V43.6h-6.6V30.5h6.6V22Z" transform="translate(-153.6 -12.8)"/><path class="ad80e53b-7ac1-44a8-a908-c8e4ce15331f" d="M825.2,54c0-7.1,2.4-13,7.2-17.6s11.3-6.9,19.4-6.9,16.4,2.7,21.2,8.1a23.5,23.5,0,0,1,5.8,16.2c0,7.1-2.4,13-7.2,17.6s-11.3,6.9-19.7,6.9-13.6-1.9-18.2-5.7A23,23,0,0,1,825.2,54Zm17.9,0c0,4.1.8,7.2,2.5,9.2a8,8,0,0,0,6.4,3,7.8,7.8,0,0,0,6.3-3c1.7-1.9,2.5-5.1,2.5-9.4s-.8-7.1-2.5-9a7.8,7.8,0,0,0-6.2-3,8.2,8.2,0,0,0-6.5,3C843.9,46.8,843.1,49.9,843.1,54Z" transform="translate(-153.6 -12.8)"/><path class="ad80e53b-7ac1-44a8-a908-c8e4ce15331f" d="M917.5,30.5h16.7v6.9a23.2,23.2,0,0,1,7.3-6.1,20.2,20.2,0,0,1,8.9-1.8,16.9,16.9,0,0,1,8.8,2,14.8,14.8,0,0,1,5.4,5.9c2.8-3.1,5.3-5.2,7.6-6.3a20,20,0,0,1,8.6-1.6q7.5,0,11.7,4.5c2.8,2.9,4.2,7.6,4.2,13.9V77.2H978.8V50.6a7.8,7.8,0,0,0-1.2-4.7,5.4,5.4,0,0,0-4.5-2.4,6.5,6.5,0,0,0-5.1,2.3c-1.3,1.5-1.9,4-1.9,7.3V77.2H948.2V51.5a18.2,18.2,0,0,0-.4-4.2,5.6,5.6,0,0,0-2-2.8,5.2,5.2,0,0,0-3.3-1.1,6.5,6.5,0,0,0-5.1,2.4c-1.3,1.5-1.9,4.1-1.9,7.6V77.2h-18Z" transform="translate(-153.6 -12.8)"/><path class="ad80e53b-7ac1-44a8-a908-c8e4ce15331f" d="M1059.2,58.3h-35.8a11.5,11.5,0,0,0,2.3,6.4,8.3,8.3,0,0,0,6.8,3.1,11.3,11.3,0,0,0,5-1.3,14.1,14.1,0,0,0,3.1-3l17.6,1.6c-2.7,4.7-5.9,8.1-9.8,10.1s-9.2,3.1-16.3,3.1-11.1-.9-14.6-2.6a21.9,21.9,0,0,1-8.8-8.3,24.6,24.6,0,0,1-3.5-13.4c0-7.3,2.3-13.2,7-17.7s11.1-6.8,19.3-6.8,12,1,15.8,3a20.5,20.5,0,0,1,8.9,8.8c2,3.9,3,8.8,3,15ZM1041,49.8c-.3-3.5-1.3-6-2.8-7.5a8,8,0,0,0-5.9-2.2,7.9,7.9,0,0,0-6.8,3.4,12.3,12.3,0,0,0-2.1,6.3Z" transform="translate(-153.6 -12.8)"/></svg>