<svg id="a54a5704-3906-43a8-aa1d-dfb8c00f66e9" data-name="Layer 1" xmlns="http://www.w3.org/2000/svg" viewBox="0 0 887.2 83.4"><defs><style>.aad8147c-8dc6-4d74-a0e2-11e9b1ee1cf8{fill:#231f20;}</style></defs><title>whenyouholdme</title><path class="aad8147c-8dc6-4d74-a0e2-11e9b1ee1cf8" d="M162.8,30.5h17.3l7.5,29.4,9.5-29.4h16.1L223.1,60l7.5-29.5h17.2L230.6,77.2H214.7l-9.5-28.1-9.1,28.1h-16Z" transform="translate(-162.8 -12.8)"/><path class="aad8147c-8dc6-4d74-a0e2-11e9b1ee1cf8" d="M254.5,12.8h17.9V36.5a24.5,24.5,0,0,1,7.3-5.4,20.2,20.2,0,0,1,8.5-1.6c4.9,0,8.7,1.5,11.5,4.4s4.2,7.5,4.2,13.7V77.2h-18V51.6c0-3-.5-5-1.6-6.3a5.9,5.9,0,0,0-4.6-1.8,6.4,6.4,0,0,0-5.3,2.5c-1.3,1.6-2,4.6-2,8.8V77.2H254.5Z" transform="translate(-162.8 -12.8)"/><path class="aad8147c-8dc6-4d74-a0e2-11e9b1ee1cf8" d="M366.4,58.3H330.5a11.5,11.5,0,0,0,2.3,6.4,8.4,8.4,0,0,0,6.8,3.1,10.9,10.9,0,0,0,5-1.3,12.2,12.2,0,0,0,3.1-3l17.7,1.6c-2.7,4.7-6,8.1-9.8,10.1s-9.3,3.1-16.4,3.1-11-.9-14.6-2.6a22.5,22.5,0,0,1-8.8-8.3A25.5,25.5,0,0,1,312.3,54c0-7.3,2.4-13.2,7-17.7s11.2-6.8,19.4-6.8,11.9,1,15.8,3a20.2,20.2,0,0,1,8.8,8.8c2.1,3.9,3.1,8.8,3.1,15Zm-18.2-8.5c-.4-3.5-1.3-6-2.8-7.5a8.8,8.8,0,0,0-12.8,1.2,11.4,11.4,0,0,0-2,6.3Z" transform="translate(-162.8 -12.8)"/><path class="aad8147c-8dc6-4d74-a0e2-11e9b1ee1cf8" d="M374.6,30.5h16.6v7.7a24.1,24.1,0,0,1,7.6-6.7,20.6,20.6,0,0,1,9.3-2c5,0,8.8,1.5,11.6,4.4s4.2,7.5,4.2,13.7V77.2H406V51.6c0-3-.6-5-1.7-6.3a5.7,5.7,0,0,0-4.5-1.8,6.3,6.3,0,0,0-5.3,2.5c-1.4,1.6-2,4.6-2,8.8V77.2H374.6Z" transform="translate(-162.8 -12.8)"/><path class="aad8147c-8dc6-4d74-a0e2-11e9b1ee1cf8" d="M459.5,30.5h18.9L488,61.6l8.9-31.1h17.7L496,80.4c-2.1,5.7-4.2,9.5-6.4,11.5s-7.9,4.3-14.2,4.3a106.3,106.3,0,0,1-12-1.1L462,82.6a29.3,29.3,0,0,0,8.6,1.3,8.2,8.2,0,0,0,5.2-1.5,11.1,11.1,0,0,0,3.3-5.2Z" transform="translate(-162.8 -12.8)"/><path class="aad8147c-8dc6-4d74-a0e2-11e9b1ee1cf8" d="M515.9,54c0-7.1,2.4-13,7.2-17.6s11.3-6.9,19.4-6.9,16.5,2.7,21.2,8.1a23.5,23.5,0,0,1,5.8,16.2c0,7.1-2.4,13-7.2,17.6s-11.3,6.9-19.7,6.9-13.6-1.9-18.2-5.7A23,23,0,0,1,515.9,54Zm17.9,0c0,4.1.8,7.2,2.5,9.2a8,8,0,0,0,6.4,3,7.7,7.7,0,0,0,6.3-3c1.7-1.9,2.5-5.1,2.5-9.4s-.8-7.1-2.5-9a7.8,7.8,0,0,0-6.2-3,8,8,0,0,0-6.4,3C534.7,46.8,533.8,49.9,533.8,54Z" transform="translate(-162.8 -12.8)"/><path class="aad8147c-8dc6-4d74-a0e2-11e9b1ee1cf8" d="M627.3,77.2H610.6V69.7a23.8,23.8,0,0,1-7.6,6.6,20,20,0,0,1-9.3,2c-4.9,0-8.8-1.5-11.6-4.4s-4.2-7.5-4.2-13.6V30.5h18V56.2c0,2.9.5,5,1.6,6.3a5.9,5.9,0,0,0,4.6,1.8,6.3,6.3,0,0,0,5.2-2.5c1.4-1.6,2.1-4.5,2.1-8.8V30.5h17.9Z" transform="translate(-162.8 -12.8)"/><path class="aad8147c-8dc6-4d74-a0e2-11e9b1ee1cf8" d="M668.1,12.8H686V36.5a25.8,25.8,0,0,1,7.3-5.4,20.2,20.2,0,0,1,8.5-1.6c4.9,0,8.7,1.5,11.5,4.4s4.2,7.5,4.2,13.7V77.2h-18V51.6c0-3-.5-5-1.6-6.3a5.9,5.9,0,0,0-4.6-1.8,6.3,6.3,0,0,0-5.2,2.5c-1.4,1.6-2.1,4.6-2.1,8.8V77.2H668.1Z" transform="translate(-162.8 -12.8)"/><path class="aad8147c-8dc6-4d74-a0e2-11e9b1ee1cf8" d="M726,54c0-7.1,2.4-13,7.2-17.6s11.3-6.9,19.5-6.9,16.4,2.7,21.1,8.1a23.5,23.5,0,0,1,5.8,16.2c0,7.1-2.4,13-7.2,17.6s-11.3,6.9-19.7,6.9-13.6-1.9-18.2-5.7A23,23,0,0,1,726,54Zm17.9,0c0,4.1.8,7.2,2.5,9.2a8,8,0,0,0,6.4,3,7.7,7.7,0,0,0,6.3-3c1.7-1.9,2.5-5.1,2.5-9.4s-.8-7.1-2.5-9a7.8,7.8,0,0,0-6.2-3,8,8,0,0,0-6.4,3C744.8,46.8,743.9,49.9,743.9,54Z" transform="translate(-162.8 -12.8)"/><path class="aad8147c-8dc6-4d74-a0e2-11e9b1ee1cf8" d="M788.8,12.8h17.9V77.2H788.8Z" transform="translate(-162.8 -12.8)"/><path class="aad8147c-8dc6-4d74-a0e2-11e9b1ee1cf8" d="M867.3,12.8V77.2H850.6V70.3a24.6,24.6,0,0,1-6.5,6,18.5,18.5,0,0,1-8.6,2c-6.3,0-11.2-2.4-14.5-7.3s-5.1-10.7-5.1-17.6,1.9-13.7,5.6-17.8a18.1,18.1,0,0,1,14.1-6.1,20.6,20.6,0,0,1,7.6,1.4,15.6,15.6,0,0,1,6,4.2V12.8Zm-17.9,41c0-3.7-.8-6.4-2.4-8.2a7.3,7.3,0,0,0-5.8-2.7,6.6,6.6,0,0,0-5.3,2.5q-2.1,2.7-2.1,8.7c0,3.9.7,6.6,2.2,8.4a6.5,6.5,0,0,0,5.4,2.7,7.1,7.1,0,0,0,5.7-2.7C848.6,60.7,849.4,57.8,849.4,53.8Z" transform="translate(-162.8 -12.8)"/><path class="aad8147c-8dc6-4d74-a0e2-11e9b1ee1cf8" d="M908.3,30.5H925v6.9a24.4,24.4,0,0,1,7.3-6.1,20.2,20.2,0,0,1,8.9-1.8,16.9,16.9,0,0,1,8.8,2,14.8,14.8,0,0,1,5.4,5.9c2.8-3.1,5.3-5.2,7.7-6.3a19.5,19.5,0,0,1,8.5-1.6q7.5,0,11.7,4.5c2.8,2.9,4.2,7.6,4.2,13.9V77.2H969.6V50.6a7.8,7.8,0,0,0-1.2-4.7,5.4,5.4,0,0,0-4.5-2.4,6.5,6.5,0,0,0-5.1,2.3c-1.2,1.5-1.9,4-1.9,7.3V77.2H939V51.5a13.9,13.9,0,0,0-.4-4.2,5.6,5.6,0,0,0-2-2.8,5.2,5.2,0,0,0-3.3-1.1,6.2,6.2,0,0,0-5,2.4c-1.4,1.5-2,4.1-2,7.6V77.2h-18Z" transform="translate(-162.8 -12.8)"/><path class="aad8147c-8dc6-4d74-a0e2-11e9b1ee1cf8" d="M1050,58.3h-35.8a11.5,11.5,0,0,0,2.3,6.4,8.3,8.3,0,0,0,6.8,3.1,11.3,11.3,0,0,0,5-1.3,14.1,14.1,0,0,0,3.1-3l17.6,1.6c-2.7,4.7-5.9,8.1-9.7,10.1s-9.3,3.1-16.4,3.1-11.1-.9-14.6-2.6a21.9,21.9,0,0,1-8.8-8.3A24.6,24.6,0,0,1,996,54c0-7.3,2.3-13.2,7-17.7s11.1-6.8,19.3-6.8,12,1,15.9,3a20.8,20.8,0,0,1,8.8,8.8c2,3.9,3,8.8,3,15Zm-18.2-8.5c-.3-3.5-1.2-6-2.8-7.5a8.7,8.7,0,0,0-12.7,1.2,12.3,12.3,0,0,0-2.1,6.3Z" transform="translate(-162.8 -12.8)"/></svg>