<svg id="b11df670-08f8-47b0-b0c6-d043a2af6a95" data-name="Layer 1" xmlns="http://www.w3.org/2000/svg" viewBox="0 0 806.9 83.4"><defs><style>.ad871aab-b6e0-42da-9fcf-4fae338fcf71{fill:#231f20;}</style></defs><title>youletmeknow</title><path class="ad871aab-b6e0-42da-9fcf-4fae338fcf71" d="M204.5,30.5h18.9L233,61.6l9-31.1h17.6L241.1,80.4c-2.1,5.7-4.3,9.5-6.5,11.5s-7.8,4.3-14.2,4.3a107,107,0,0,1-11.9-1.1l-1.4-12.5a28.8,28.8,0,0,0,8.6,1.3,8.1,8.1,0,0,0,5.1-1.5,11.1,11.1,0,0,0,3.3-5.2Z" transform="translate(-204.5 -12.8)"/><path class="ad871aab-b6e0-42da-9fcf-4fae338fcf71" d="M260.9,54c0-7.1,2.4-13,7.2-17.6s11.3-6.9,19.5-6.9,16.4,2.7,21.2,8.1a23.9,23.9,0,0,1,5.7,16.2c0,7.1-2.3,13-7.1,17.6s-11.3,6.9-19.8,6.9-13.5-1.9-18.1-5.7A23.1,23.1,0,0,1,260.9,54Zm18,0c0,4.1.8,7.2,2.5,9.2a8.2,8.2,0,0,0,12.7,0c1.6-1.9,2.5-5.1,2.5-9.4s-.9-7.1-2.5-9a7.9,7.9,0,0,0-6.2-3,8.2,8.2,0,0,0-6.5,3C279.7,46.8,278.9,49.9,278.9,54Z" transform="translate(-204.5 -12.8)"/><path class="ad871aab-b6e0-42da-9fcf-4fae338fcf71" d="M372.3,77.2H355.6V69.7a24.7,24.7,0,0,1-7.5,6.6,20.3,20.3,0,0,1-9.3,2c-5,0-8.8-1.5-11.6-4.4S323,66.4,323,60.3V30.5h17.9V56.2c0,2.9.6,5,1.7,6.3a5.8,5.8,0,0,0,4.5,1.8,6.4,6.4,0,0,0,5.3-2.5c1.4-1.6,2-4.5,2-8.8V30.5h17.9Z" transform="translate(-204.5 -12.8)"/><path class="ad871aab-b6e0-42da-9fcf-4fae338fcf71" d="M413.8,12.8h17.9V77.2H413.8Z" transform="translate(-204.5 -12.8)"/><path class="ad871aab-b6e0-42da-9fcf-4fae338fcf71" d="M495,58.3H459.1a11.5,11.5,0,0,0,2.3,6.4,8.4,8.4,0,0,0,6.8,3.1,10.9,10.9,0,0,0,5-1.3,12.2,12.2,0,0,0,3.1-3L494,65.1c-2.7,4.7-6,8.1-9.8,10.1s-9.3,3.1-16.4,3.1-11-.9-14.6-2.6a22.5,22.5,0,0,1-8.8-8.3A25.5,25.5,0,0,1,440.9,54c0-7.3,2.4-13.2,7-17.7s11.2-6.8,19.4-6.8,11.9,1,15.8,3a20.2,20.2,0,0,1,8.8,8.8c2.1,3.9,3.1,8.8,3.1,15Zm-18.2-8.5c-.4-3.5-1.3-6-2.8-7.5a8.8,8.8,0,0,0-12.8,1.2c-1.1,1.4-1.7,3.5-2,6.3Z" transform="translate(-204.5 -12.8)"/><path class="ad871aab-b6e0-42da-9fcf-4fae338fcf71" d="M524.8,12.8V30.5h9.8V43.6h-9.8V60.2a10.2,10.2,0,0,0,.5,3.9,3.4,3.4,0,0,0,3.1,1.5,22.4,22.4,0,0,0,5.6-1.1l1.3,12.3a56.6,56.6,0,0,1-12.4,1.5c-4.5,0-7.8-.6-9.9-1.7a10.6,10.6,0,0,1-4.6-5.2c-1.1-2.4-1.6-6.1-1.6-11.3V43.6h-6.5V30.5h6.5V22Z" transform="translate(-204.5 -12.8)"/><path class="ad871aab-b6e0-42da-9fcf-4fae338fcf71" d="M573.3,30.5H590v6.9a22.2,22.2,0,0,1,7.3-6.1,19.7,19.7,0,0,1,8.8-1.8,17.3,17.3,0,0,1,8.9,2,14.6,14.6,0,0,1,5.3,5.9,26.6,26.6,0,0,1,7.7-6.3,19.8,19.8,0,0,1,8.5-1.6c5.1,0,9,1.5,11.8,4.5s4.2,7.6,4.2,13.9V77.2h-18V50.6a7.8,7.8,0,0,0-1.2-4.7,5.4,5.4,0,0,0-4.4-2.4,6.5,6.5,0,0,0-5.1,2.3c-1.3,1.5-2,4-2,7.3V77.2H603.9V51.5a19.9,19.9,0,0,0-.3-4.2,6.3,6.3,0,0,0-2-2.8,5.7,5.7,0,0,0-3.3-1.1,6.3,6.3,0,0,0-5.1,2.4c-1.3,1.5-2,4.1-2,7.6V77.2H573.3Z" transform="translate(-204.5 -12.8)"/><path class="ad871aab-b6e0-42da-9fcf-4fae338fcf71" d="M715,58.3H679.1a11.5,11.5,0,0,0,2.3,6.4,8.4,8.4,0,0,0,6.8,3.1,10.9,10.9,0,0,0,5-1.3,12.2,12.2,0,0,0,3.1-3L714,65.1c-2.7,4.7-6,8.1-9.8,10.1s-9.3,3.1-16.4,3.1-11-.9-14.6-2.6a22.5,22.5,0,0,1-8.8-8.3A25.5,25.5,0,0,1,660.9,54c0-7.3,2.4-13.2,7-17.7s11.2-6.8,19.4-6.8,11.9,1,15.8,3a20.2,20.2,0,0,1,8.8,8.8c2.1,3.9,3.1,8.8,3.1,15Zm-18.2-8.5c-.4-3.5-1.3-6-2.8-7.5a8.8,8.8,0,0,0-12.8,1.2,11.4,11.4,0,0,0-2,6.3Z" transform="translate(-204.5 -12.8)"/><path class="ad871aab-b6e0-42da-9fcf-4fae338fcf71" d="M753.2,12.8h18.3V46l13.3-15.5h22.1L790.1,46.9l17.7,30.3H787.7l-9.5-18.7-6.7,6.6V77.2H753.2Z" transform="translate(-204.5 -12.8)"/><path class="ad871aab-b6e0-42da-9fcf-4fae338fcf71" d="M813.2,30.5h16.7v7.7a23.9,23.9,0,0,1,7.5-6.7,20.7,20.7,0,0,1,9.4-2c4.9,0,8.8,1.5,11.6,4.4s4.2,7.5,4.2,13.7V77.2h-18V51.6c0-3-.5-5-1.6-6.3a5.9,5.9,0,0,0-4.6-1.8,6.4,6.4,0,0,0-5.3,2.5c-1.3,1.6-2,4.6-2,8.8V77.2H813.2Z" transform="translate(-204.5 -12.8)"/><path class="ad871aab-b6e0-42da-9fcf-4fae338fcf71" d="M871.1,54c0-7.1,2.4-13,7.2-17.6s11.3-6.9,19.4-6.9,16.4,2.7,21.2,8.1a23.5,23.5,0,0,1,5.8,16.2c0,7.1-2.4,13-7.2,17.6s-11.3,6.9-19.7,6.9-13.6-1.9-18.2-5.7A23,23,0,0,1,871.1,54ZM889,54c0,4.1.8,7.2,2.5,9.2a8,8,0,0,0,6.4,3,7.8,7.8,0,0,0,6.3-3c1.7-1.9,2.5-5.1,2.5-9.4s-.8-7.1-2.5-9a7.8,7.8,0,0,0-6.2-3,8.2,8.2,0,0,0-6.5,3C889.8,46.8,889,49.9,889,54Z" transform="translate(-204.5 -12.8)"/><path class="ad871aab-b6e0-42da-9fcf-4fae338fcf71" d="M926.4,30.5h17.3l7.5,29.4,9.5-29.4h16.1L986.7,60l7.5-29.5h17.2L994.2,77.2H978.3l-9.4-28.1-9.2,28.1h-16Z" transform="translate(-204.5 -12.8)"/></svg>