<svg id="bc8033d2-e29c-46e1-9f57-009119219569" data-name="af6c144d-ee99-45bd-9545-b5fe5710bab1" xmlns="http://www.w3.org/2000/svg" viewBox="0 0 106 30.9"><defs><style>.fe766257-5f57-4993-9018-88a19835aaac{fill:#231f20;}</style></defs><title>youre</title><path class="fe766257-5f57-4993-9018-88a19835aaac" d="M6.7,20.8,0,1.4l6.7-.2,3.1,9.3,2.8-9.1H19L13,21.2v8.3H6.8Z"/><path class="fe766257-5f57-4993-9018-88a19835aaac" d="M24.4,29.5l-4.7-4.8V7.8l4.3-6,10.4-.2L39,6.3v17l-4.3,5.9Zm1.8-7,6.6-.3L32.4,8.6l-6.6.2Z"/><path class="fe766257-5f57-4993-9018-88a19835aaac" d="M46.9,1.6l.3,20.9,5.7-.3L52.5,1.5H59V23.3l-4.3,5.9-9.4.3-4.7-4.8V1.7Z"/><path class="fe766257-5f57-4993-9018-88a19835aaac" d="M60.8,1.2,67.3,1l-.2,10.5-6.4-.2Z"/><path class="fe766257-5f57-4993-9018-88a19835aaac" d="M83.1,1.1l4.7,4.8-.3,8.4L84,18.6l3.4,11.2H80.2L77.5,20H75.4v9.6H69V1.6ZM75.5,8v5.4l5.7-.2V7.7Z"/><path class="fe766257-5f57-4993-9018-88a19835aaac" d="M95.9,18.3v3.6l9.5.3.2,7.2-15.9-.5V1.4h15.8V8.2l-9.3-.4v4l7.4-.3-.3,6.7Z"/></svg>